<svg width="24" height="18" viewBox="0 0 24 18" fill="none" xmlns="http://www.w3.org/2000/svg">
<mask id="mask0_201_6206" style="mask-type:luminance" maskUnits="userSpaceOnUse" x="0" y="0" width="24" height="18">
<rect width="24" height="18" fill="white"/>
</mask>
<g mask="url(#mask0_201_6206)">
<path fill-rule="evenodd" clip-rule="evenodd" d="M0 0V18H24V0H0Z" fill="#2E42A5"/>
<mask id="mask1_201_6206" style="mask-type:luminance" maskUnits="userSpaceOnUse" x="0" y="0" width="24" height="18">
<path fill-rule="evenodd" clip-rule="evenodd" d="M0 0V18H24V0H0Z" fill="white"/>
</mask>
<g mask="url(#mask1_201_6206)">
<mask id="mask2_201_6206" style="mask-type:luminance" maskUnits="userSpaceOnUse" x="0" y="0" width="24" height="18">
<rect width="24" height="18" fill="white"/>
</mask>
<g mask="url(#mask2_201_6206)">
<path d="M-2.67236 16.7137L2.6089 18.9473L24.1198 2.42805L26.9056 -0.89106L21.258 -1.63758L12.4842 5.48103L5.42223 10.2773L-2.67236 16.7137Z" fill="white"/>
<path d="M-1.94922 18.28L0.741343 19.5762L25.9054 -1.19803H22.1275L-1.94922 18.28Z" fill="#F50100"/>
<path d="M26.6724 16.7137L21.3911 18.9473L-0.119831 2.42805L-2.90558 -0.89106L2.74197 -1.63758L11.5158 5.48103L18.5778 10.2773L26.6724 16.7137Z" fill="white"/>
<path d="M26.4922 17.8386L23.8016 19.1348L13.0865 10.2402L9.90973 9.24649L-3.1736 -0.877913H0.604259L13.6802 9.00618L17.1535 10.1978L26.4922 17.8386Z" fill="#F50100"/>
<mask id="path-9-inside-1_201_6206" fill="white">
<path fill-rule="evenodd" clip-rule="evenodd" d="M14.8332 -1.5H9.16653V6H-1.47949V12H9.16653V19.5H14.8332V12H25.5205V6H14.8332V-1.5Z"/>
</mask>
<path fill-rule="evenodd" clip-rule="evenodd" d="M14.8332 -1.5H9.16653V6H-1.47949V12H9.16653V19.5H14.8332V12H25.5205V6H14.8332V-1.5Z" fill="#F50100"/>
<path d="M9.16653 -1.5V-3H7.66653V-1.5H9.16653ZM14.8332 -1.5H16.3332V-3H14.8332V-1.5ZM9.16653 6V7.5H10.6665V6H9.16653ZM-1.47949 6V4.5H-2.97949V6H-1.47949ZM-1.47949 12H-2.97949V13.5H-1.47949V12ZM9.16653 12H10.6665V10.5H9.16653V12ZM9.16653 19.5H7.66653V21H9.16653V19.5ZM14.8332 19.5V21H16.3332V19.5H14.8332ZM14.8332 12V10.5H13.3332V12H14.8332ZM25.5205 12V13.5H27.0205V12H25.5205ZM25.5205 6H27.0205V4.5H25.5205V6ZM14.8332 6H13.3332V7.5H14.8332V6ZM9.16653 0H14.8332V-3H9.16653V0ZM10.6665 6V-1.5H7.66653V6H10.6665ZM-1.47949 7.5H9.16653V4.5H-1.47949V7.5ZM0.0205078 12V6H-2.97949V12H0.0205078ZM9.16653 10.5H-1.47949V13.5H9.16653V10.5ZM10.6665 19.5V12H7.66653V19.5H10.6665ZM14.8332 18H9.16653V21H14.8332V18ZM13.3332 12V19.5H16.3332V12H13.3332ZM25.5205 10.5H14.8332V13.5H25.5205V10.5ZM24.0205 6V12H27.0205V6H24.0205ZM14.8332 7.5H25.5205V4.5H14.8332V7.5ZM13.3332 -1.5V6H16.3332V-1.5H13.3332Z" fill="white" mask="url(#path-9-inside-1_201_6206)"/>
</g>
</g>
</g>
</svg>
