<svg width="80" height="80" viewBox="0 0 80 80" fill="none" xmlns="http://www.w3.org/2000/svg">
<g filter="url(#filter0_d_27_34162)">
<path d="M67.1875 30.209C67.1875 51.3548 40 69.4798 40 69.4798C40 69.4798 12.8125 51.3548 12.8125 30.209C12.8125 22.9984 15.6769 16.0832 20.7755 10.9845C25.8742 5.88587 32.7894 3.02148 40 3.02148C47.2106 3.02148 54.1258 5.88587 59.2245 10.9845C64.3231 16.0832 67.1875 22.9984 67.1875 30.209Z" fill="#27AE60"/>
<path d="M67.1875 30.209C67.1875 51.3548 40 69.4798 40 69.4798C40 69.4798 12.8125 51.3548 12.8125 30.209C12.8125 22.9984 15.6769 16.0832 20.7755 10.9845C25.8742 5.88587 32.7894 3.02148 40 3.02148C47.2106 3.02148 54.1258 5.88587 59.2245 10.9845C64.3231 16.0832 67.1875 22.9984 67.1875 30.209Z" stroke="#27AE60" stroke-width="5" stroke-linecap="round" stroke-linejoin="round"/>
</g>
<path d="M40 39.2715C45.0051 39.2715 49.0625 35.2141 49.0625 30.209C49.0625 25.2039 45.0051 21.1465 40 21.1465C34.9949 21.1465 30.9375 25.2039 30.9375 30.209C30.9375 35.2141 34.9949 39.2715 40 39.2715Z" fill="white"/>
<defs>
<filter id="filter0_d_27_34162" x="10.3125" y="0.521484" width="66.875" height="78.959" filterUnits="userSpaceOnUse" color-interpolation-filters="sRGB">
<feFlood flood-opacity="0" result="BackgroundImageFix"/>
<feColorMatrix in="SourceAlpha" type="matrix" values="0 0 0 0 0 0 0 0 0 0 0 0 0 0 0 0 0 0 127 0" result="hardAlpha"/>
<feOffset dx="7.5" dy="7.5"/>
<feComposite in2="hardAlpha" operator="out"/>
<feColorMatrix type="matrix" values="0 0 0 0 0.152941 0 0 0 0 0.682353 0 0 0 0 0.376471 0 0 0 0.7 0"/>
<feBlend mode="normal" in2="BackgroundImageFix" result="effect1_dropShadow_27_34162"/>
<feBlend mode="normal" in="SourceGraphic" in2="effect1_dropShadow_27_34162" result="shape"/>
</filter>
</defs>
</svg>
