<svg width="89" height="84" viewBox="0 0 89 84" fill="none" xmlns="http://www.w3.org/2000/svg">
<g filter="url(#filter0_d_27_34149)">
<path d="M22.7292 7.5C12.663 7.5 4.5 15.5792 4.5 25.5469C4.5 33.5932 7.69011 52.6901 39.0917 71.9948C39.6542 72.337 40.2999 72.5181 40.9583 72.5181C41.6168 72.5181 42.2625 72.337 42.825 71.9948C74.2266 52.6901 77.4167 33.5932 77.4167 25.5469C77.4167 15.5792 69.2536 7.5 59.1875 7.5C49.1214 7.5 40.9583 18.4375 40.9583 18.4375C40.9583 18.4375 32.7953 7.5 22.7292 7.5Z" fill="#27AE60"/>
<path d="M22.7292 7.5C12.663 7.5 4.5 15.5792 4.5 25.5469C4.5 33.5932 7.69011 52.6901 39.0917 71.9948C39.6542 72.337 40.2999 72.5181 40.9583 72.5181C41.6168 72.5181 42.2625 72.337 42.825 71.9948C74.2266 52.6901 77.4167 33.5932 77.4167 25.5469C77.4167 15.5792 69.2536 7.5 59.1875 7.5C49.1214 7.5 40.9583 18.4375 40.9583 18.4375C40.9583 18.4375 32.7953 7.5 22.7292 7.5Z" stroke="#27AE60" stroke-width="7.29167" stroke-linecap="round" stroke-linejoin="round"/>
</g>
<defs>
<filter id="filter0_d_27_34149" x="0.854004" y="3.85352" width="87.7085" height="79.8105" filterUnits="userSpaceOnUse" color-interpolation-filters="sRGB">
<feFlood flood-opacity="0" result="BackgroundImageFix"/>
<feColorMatrix in="SourceAlpha" type="matrix" values="0 0 0 0 0 0 0 0 0 0 0 0 0 0 0 0 0 0 127 0" result="hardAlpha"/>
<feOffset dx="7.5" dy="7.5"/>
<feComposite in2="hardAlpha" operator="out"/>
<feColorMatrix type="matrix" values="0 0 0 0 0.152941 0 0 0 0 0.682353 0 0 0 0 0.376471 0 0 0 0.7 0"/>
<feBlend mode="normal" in2="BackgroundImageFix" result="effect1_dropShadow_27_34149"/>
<feBlend mode="normal" in="SourceGraphic" in2="effect1_dropShadow_27_34149" result="shape"/>
</filter>
</defs>
</svg>
