<svg width="233" height="107" viewBox="0 0 233 107" fill="none" xmlns="http://www.w3.org/2000/svg">
<path d="M64.2427 55.148C63.8504 55.1246 63.4623 55.2388 63.1456 55.4707C62.829 55.7026 62.6039 56.0376 62.5093 56.4175C61.9598 59.3072 60.594 61.9807 58.5722 64.1242C56.5504 66.2677 53.9566 67.7922 51.0953 68.5186C48.234 69.2451 45.224 69.1434 42.4188 68.2254C39.6135 67.3075 37.1294 65.6115 35.2581 63.3364C33.3868 61.0614 32.2061 58.3018 31.8545 55.3817C31.5029 52.4616 31.995 49.5022 33.2731 46.8509C34.5512 44.1997 36.5622 41.9666 39.07 40.414C41.5778 38.8614 44.4783 38.0537 47.4309 38.0856C47.8141 38.0856 48.1841 37.9463 48.4716 37.6938C48.759 37.4414 48.9441 37.0932 48.9922 36.7146C49.0177 36.4968 48.9962 36.2761 48.9289 36.0674C48.8617 35.8586 48.7504 35.6666 48.6025 35.5043C48.4546 35.3419 48.2735 35.213 48.0714 35.1261C47.8693 35.0393 47.6509 34.9965 47.4309 35.0007C43.9047 35.0059 40.4529 36.011 37.4792 37.8983C34.5054 39.7856 32.1325 42.4772 30.6381 45.6583C29.1437 48.8394 28.5894 52.3786 29.0401 55.8619C29.4908 59.3452 30.9279 62.6287 33.1833 65.3285C35.4386 68.0283 38.4191 70.0327 41.7761 71.1073C45.1332 72.182 48.728 72.2825 52.1403 71.3971C55.5525 70.5117 58.6412 68.677 61.0451 66.1075C63.449 63.538 65.0687 60.3399 65.7149 56.8873C65.7405 56.6754 65.7221 56.4606 65.6608 56.2561C65.5994 56.0517 65.4965 55.862 65.3585 55.6988C65.2204 55.5357 65.0501 55.4026 64.8581 55.3078C64.6662 55.2131 64.4567 55.1587 64.2427 55.148Z" fill="#1E2346"/>
<path d="M47.3862 75.5365C44.4448 75.5935 41.5214 75.0668 38.7865 73.9869C36.0515 72.907 33.5598 71.2957 31.4566 69.2468C29.3533 67.1979 27.6806 64.7524 26.536 62.053C25.3914 59.3536 24.7977 56.4543 24.7897 53.524C24.7817 50.5937 25.3594 47.6912 26.4892 44.9856C27.619 42.28 29.2782 39.8255 31.3702 37.7652C33.4622 35.7049 35.945 34.08 38.674 32.9853C41.403 31.8905 44.3234 31.3479 47.2651 31.3889C48.0097 31.3741 48.7492 31.5144 49.4362 31.8007C50.1232 32.0871 50.7426 32.5133 51.2546 33.052C51.9362 33.796 52.383 34.7232 52.5396 35.7183C52.6961 36.7133 52.5554 37.7323 52.135 38.6483C51.7145 39.5643 51.0329 40.337 50.175 40.8701C49.317 41.4032 48.3206 41.6732 47.3097 41.6466C45.0561 41.6508 42.85 42.2927 40.9485 43.4976C39.0471 44.7025 37.5285 46.4208 36.5697 48.4522C35.611 50.4837 35.2515 52.7446 35.5332 54.9717C35.8149 57.1988 36.7261 59.3004 38.1608 61.0315C39.5955 62.7626 41.4945 64.052 43.6366 64.7495C45.7787 65.447 48.0757 65.5239 50.2599 64.9712C52.4442 64.4185 54.4259 63.259 55.974 61.6277C57.5221 59.9964 58.5729 57.9606 59.0041 55.7573C59.2712 54.4984 59.9901 53.3796 61.026 52.6107C62.0619 51.8418 63.3438 51.4756 64.6314 51.5806C65.3163 51.6413 65.9823 51.8369 66.5906 52.1562C67.1989 52.4755 67.7374 52.912 68.1748 53.4405C68.6134 53.9658 68.9411 54.5739 69.1382 55.2283C69.3353 55.8827 69.3978 56.57 69.3219 57.249L69.2773 57.5791C68.2946 62.6409 65.5711 67.2032 61.5755 70.4807C57.58 73.7583 52.5624 75.5461 47.3862 75.5365Z" fill="#1E2346"/>
<path d="M47.1633 61.4703C48.7527 61.4703 50.3064 61.0008 51.628 60.1213C52.9495 59.2418 53.9796 57.9917 54.5878 56.5291C55.1961 55.0665 55.3552 53.4571 55.0451 51.9044C54.7351 50.3517 53.9697 48.9255 52.8458 47.806C51.7219 46.6866 50.2899 45.9243 48.7311 45.6154C47.1722 45.3066 45.5563 45.4651 44.0879 46.0709C42.6195 46.6767 41.3644 47.7027 40.4813 49.019C39.5983 50.3353 39.127 51.8828 39.127 53.4659C39.127 55.5888 39.9736 57.6248 41.4807 59.1259C42.9878 60.627 45.0319 61.4703 47.1633 61.4703Z" fill="#F49B4D"/>
<path d="M79.3466 56.5953C78.6115 56.5364 77.8804 56.7491 77.2927 57.1928C76.705 57.6365 76.3018 58.2802 76.1601 59.001C75.1548 64.4548 72.6082 69.5097 68.8193 73.5722C65.0304 77.6348 60.1565 80.5363 54.7698 81.9363C49.3831 83.3362 43.7072 83.1764 38.4084 81.4756C33.1097 79.7748 28.4082 76.6036 24.8558 72.3343C21.3033 68.065 19.0475 62.8749 18.3531 57.3733C17.6588 51.8717 18.5547 46.287 20.9356 41.2748C23.3166 36.2626 27.0839 32.031 31.7951 29.0768C36.5062 26.1227 41.9658 24.5686 47.5328 24.597C48.266 24.5916 48.9715 24.3175 49.5146 23.8269C50.0577 23.3363 50.4004 22.6636 50.4771 21.9373C50.5074 21.5367 50.4569 21.134 50.3287 20.753C50.2005 20.372 49.9972 20.0203 49.7306 19.7187C49.464 19.4171 49.1396 19.1717 48.7764 18.9967C48.4132 18.8218 48.0185 18.7209 47.6157 18.7001C29.1341 18.6175 13.3037 32.8235 12.2904 51.5235C11.2834 69.1382 24.1504 84.931 41.7334 87.7557C50.7553 89.2673 60.0133 87.2123 67.5369 82.028C75.0606 76.8436 80.2558 68.9394 82.0169 59.9976C82.0786 59.5977 82.0575 59.1895 81.9548 58.7981C81.8522 58.4067 81.6702 58.0403 81.42 57.7216C81.1699 57.4029 80.8569 57.1385 80.5003 56.9448C80.1437 56.7511 79.7511 56.6322 79.3466 56.5953Z" fill="#F49B4D"/>
<path d="M47.6857 90.9295C45.5508 90.9275 43.4195 90.7535 41.3128 90.409C22.4679 87.3812 8.54302 70.2299 9.62005 51.3712C10.6907 31.5159 27.305 16.0087 47.4754 16.0087H47.6539C48.4523 16.0374 49.2361 16.2298 49.9566 16.5739C50.677 16.9179 51.3184 17.4061 51.8409 18.0082C52.5541 18.8234 53.0153 19.8268 53.1688 20.8972C53.3224 21.9677 53.1618 23.0595 52.7065 24.0412C52.2511 25.0228 51.5204 25.8522 50.6024 26.4295C49.6844 27.0068 48.6183 27.3073 47.5328 27.2947H47.3926C42.3954 27.3291 37.5108 28.7767 33.3076 31.4689C29.1044 34.1611 25.7555 37.9871 23.6508 42.5016C21.5461 47.016 20.7722 52.033 21.4192 56.9686C22.0663 61.9041 24.1076 66.555 27.3056 70.3798C30.5035 74.2045 34.7265 77.0458 39.4829 78.5728C44.2392 80.0997 49.3332 80.2495 54.1717 79.0047C59.0102 77.7599 63.3941 75.1717 66.813 71.5415C70.2319 67.9113 72.5452 63.3885 73.4835 58.4996C73.759 57.1205 74.5355 55.8911 75.6643 55.0467C76.7931 54.2022 78.195 53.8021 79.6015 53.9229C80.3723 53.9921 81.1204 54.219 81.7991 54.5892C82.4779 54.9595 83.0727 55.4652 83.5463 56.0748C84.0201 56.6835 84.3654 57.3814 84.5614 58.1264C84.7574 58.8714 84.8002 59.6483 84.6871 60.4102C83.0633 68.9979 78.4755 76.7496 71.7181 82.3232C64.9607 87.8967 56.4593 90.9412 47.6857 90.9295ZM47.3607 21.3851C39.1059 21.3582 31.1545 24.4824 25.1412 30.1152C19.1279 35.748 15.5098 43.4614 15.0307 51.6695C14.0811 67.8242 26.0177 82.5189 42.1795 85.1024C50.5165 86.5515 59.0913 84.6783 66.054 79.8867C73.0167 75.0951 77.8092 67.7693 79.3976 59.4898C79.3976 59.4898 79.3593 59.42 79.3211 59.3755C79.2951 59.3429 79.2622 59.3163 79.2247 59.2977C79.1873 59.279 79.1462 59.2688 79.1044 59.2676H79.0598C78.9931 59.2963 78.9344 59.3408 78.8888 59.3972C78.8433 59.4536 78.8123 59.5203 78.7985 59.5913C77.6837 65.5348 74.8925 71.0392 70.7515 75.4603C66.6105 79.8814 61.291 83.0365 55.4154 84.5563C49.5399 86.0762 43.3513 85.8979 37.5737 84.0424C31.7962 82.1869 26.6686 78.731 22.7911 74.0789C18.9135 69.4268 16.4464 63.771 15.6782 57.7732C14.9101 51.7755 15.8728 45.6839 18.4536 40.2113C21.0345 34.7386 25.1268 30.1112 30.2517 26.8705C35.3766 23.6298 41.3221 21.9099 47.3926 21.9119C47.5646 21.9119 47.7877 21.8612 47.8132 21.639C47.7176 21.4867 47.6284 21.3914 47.5009 21.3851H47.3607Z" fill="#F49B4D"/>
<path d="M59.0041 31.243C58.9891 29.2773 59.3908 27.3306 60.1831 25.5301C60.955 23.8086 62.0544 22.2523 63.4206 20.9472C64.8232 19.6119 66.4753 18.5638 68.2832 17.8622C71.8879 16.5272 75.8299 16.3913 79.5187 17.475C80.7703 17.8747 81.9803 18.3933 83.1321 19.0238C84.0821 19.5952 84.9667 20.2677 85.7705 21.0297C85.8381 21.0972 85.8801 21.186 85.8894 21.2809C85.8987 21.3758 85.8747 21.4709 85.8215 21.5502L81.2457 28.5643C81.2157 28.6096 81.1768 28.6484 81.1312 28.6782C81.0857 28.708 81.0345 28.7283 80.9809 28.7378C80.9272 28.7473 80.8722 28.7459 80.8191 28.7335C80.766 28.7211 80.716 28.6981 80.6722 28.6659C80.2635 28.3937 79.8377 28.1477 79.3976 27.9295C78.8488 27.6301 78.2727 27.3836 77.6769 27.1932C77.0117 26.9805 76.3171 26.8734 75.6184 26.8758C74.3084 26.8206 73.0255 27.2579 72.0241 28.1009C71.5821 28.5041 71.2291 28.9945 70.9876 29.5409C70.7462 30.0873 70.6215 30.6777 70.6215 31.2747C70.6215 31.8717 70.7462 32.4622 70.9876 33.0086C71.2291 33.555 71.5821 34.0453 72.0241 34.4485C73.027 35.2888 74.3089 35.7257 75.6184 35.6736C76.3153 35.6782 77.009 35.5798 77.6769 35.3816C78.2727 35.213 78.8494 34.9832 79.3976 34.6961C79.8398 34.4721 80.2657 34.2176 80.6722 33.9344C80.716 33.9021 80.766 33.8791 80.8191 33.8668C80.8722 33.8544 80.9272 33.8529 80.9809 33.8624C81.0345 33.8719 81.0857 33.8922 81.1312 33.922C81.1768 33.9519 81.2157 33.9906 81.2457 34.0359L85.8152 40.9802C85.8683 41.0595 85.8923 41.1547 85.883 41.2495C85.8737 41.3444 85.8317 41.4332 85.7642 41.5007C84.9768 42.2862 84.0924 42.9687 83.1321 43.532C81.989 44.1768 80.777 44.6921 79.5187 45.0681C77.85 45.5706 76.1123 45.8083 74.3693 45.7727C72.2875 45.7919 70.2213 45.4126 68.2832 44.6555C66.4753 43.9539 64.8232 42.9058 63.4206 41.5705C62.0473 40.2579 60.9453 38.6902 60.1767 36.9558C59.3866 35.155 58.987 33.2082 59.0041 31.243Z" fill="#1E2346"/>
<path d="M100.537 36.1814H110.931C111.041 36.1814 111.146 36.2248 111.224 36.3022C111.302 36.3796 111.345 36.4845 111.345 36.594V45.2902C111.345 45.3441 111.335 45.3974 111.314 45.4471C111.293 45.4968 111.262 45.5419 111.224 45.5797C111.185 45.6175 111.139 45.6473 111.089 45.6674C111.039 45.6874 110.985 45.6973 110.931 45.6964H89.7346C89.6808 45.6973 89.6274 45.6874 89.5775 45.6673C89.5276 45.6471 89.4823 45.6173 89.4442 45.5794C89.4062 45.5415 89.3762 45.4963 89.356 45.4467C89.3358 45.397 89.3259 45.3438 89.3267 45.2902V17.1703C89.3259 17.1164 89.3358 17.0629 89.3559 17.0129C89.376 16.9628 89.4059 16.9173 89.4439 16.8789C89.4819 16.8405 89.5271 16.81 89.577 16.7892C89.6269 16.7684 89.6805 16.7577 89.7346 16.7577H99.7146C99.8234 16.7594 99.9271 16.8036 100.003 16.8808C100.08 16.958 100.123 17.0619 100.123 17.1703V35.8005C100.131 35.9044 100.178 36.0013 100.255 36.072C100.331 36.1426 100.432 36.1817 100.537 36.1814Z" fill="#1E2346"/>
<path d="M125.054 45.7028H115.086C114.978 45.7028 114.874 45.66 114.798 45.5838C114.721 45.5076 114.678 45.4043 114.678 45.2965V17.1703C114.678 17.0619 114.721 16.958 114.797 16.8808C114.874 16.8036 114.977 16.7594 115.086 16.7577H125.066C125.176 16.7577 125.281 16.8012 125.359 16.8785C125.437 16.9559 125.481 17.0609 125.481 17.1703V45.3156C125.478 45.3689 125.465 45.4213 125.442 45.4697C125.419 45.518 125.387 45.5614 125.348 45.5974C125.308 45.6334 125.262 45.6612 125.211 45.6793C125.161 45.6974 125.107 45.7053 125.054 45.7028Z" fill="#1E2346"/>
<path d="M129.623 31.243C129.608 29.2773 130.01 27.3306 130.802 25.5302C131.576 23.8081 132.677 22.2517 134.046 20.9472C135.448 19.6119 137.1 18.5638 138.908 17.8622C142.508 16.5181 146.447 16.3712 150.137 17.4433C151.389 17.8429 152.599 18.3616 153.751 18.9921C154.7 19.5738 155.583 20.257 156.383 21.0297C156.45 21.0972 156.492 21.186 156.502 21.2809C156.511 21.3758 156.487 21.4709 156.434 21.5502L151.871 28.5643C151.841 28.6096 151.802 28.6484 151.756 28.6782C151.711 28.7081 151.66 28.7283 151.606 28.7378C151.552 28.7473 151.497 28.7459 151.444 28.7335C151.391 28.7211 151.341 28.6981 151.297 28.6659C150.889 28.3828 150.464 28.1263 150.023 27.8978C149.474 27.5984 148.898 27.3518 148.302 27.1615C147.637 26.9488 146.942 26.8417 146.244 26.8441C144.934 26.7889 143.651 27.2262 142.649 28.0692C142.207 28.4724 141.854 28.9628 141.613 29.5092C141.371 30.0556 141.247 30.646 141.247 31.243C141.247 31.84 141.371 32.4304 141.613 32.9768C141.854 33.5232 142.207 34.0136 142.649 34.4168C143.652 35.2571 144.934 35.694 146.244 35.6419C146.94 35.6465 147.634 35.5481 148.302 35.3499C148.898 35.1812 149.474 34.9515 150.023 34.6644C150.465 34.4404 150.891 34.1859 151.297 33.9026C151.341 33.8704 151.391 33.8474 151.444 33.835C151.497 33.8227 151.552 33.8212 151.606 33.8307C151.66 33.8402 151.711 33.8605 151.756 33.8903C151.802 33.9201 151.841 33.9589 151.871 34.0042L156.44 40.9485C156.493 41.0278 156.517 41.1229 156.508 41.2178C156.499 41.3127 156.457 41.4015 156.389 41.469C155.601 42.253 154.716 42.9354 153.757 43.5002C152.613 44.1565 151.399 44.6824 150.137 45.0681C148.469 45.5706 146.731 45.8084 144.988 45.7727C142.906 45.7919 140.84 45.4126 138.902 44.6555C137.094 43.9539 135.442 42.9058 134.039 41.5706C132.666 40.2579 131.564 38.6902 130.795 36.9558C130.005 35.155 129.606 33.2083 129.623 31.243Z" fill="#1E2346"/>
<path d="M180.307 31.243L188.662 45.1125C188.704 45.1745 188.729 45.247 188.732 45.3219C188.736 45.3968 188.719 45.4713 188.682 45.537C188.646 45.6028 188.592 45.6572 188.527 45.6943C188.461 45.7314 188.387 45.7497 188.311 45.7473H176.84C176.764 45.7484 176.689 45.7282 176.623 45.6889C176.558 45.6496 176.505 45.5929 176.47 45.5251L170.735 34.1629V45.3156C170.736 45.3692 170.726 45.4224 170.706 45.4721C170.685 45.5218 170.655 45.5669 170.617 45.6048C170.579 45.6427 170.534 45.6726 170.484 45.6927C170.434 45.7128 170.381 45.7227 170.327 45.7219H160.334C160.281 45.7219 160.228 45.7113 160.179 45.6908C160.13 45.6704 160.085 45.6403 160.048 45.6025C160.011 45.5647 159.981 45.5199 159.961 45.4706C159.942 45.4214 159.932 45.3687 159.933 45.3156V17.1386C159.933 17.032 159.975 16.9296 160.05 16.8536C160.125 16.7776 160.227 16.734 160.334 16.7324H170.34C170.448 16.7324 170.552 16.7752 170.628 16.8513C170.705 16.9275 170.748 17.0309 170.748 17.1386V28.3421L175.629 17.0053C175.66 16.9313 175.712 16.8682 175.779 16.824C175.846 16.7799 175.925 16.7568 176.005 16.7578H187.515C187.591 16.754 187.666 16.7715 187.732 16.8081C187.799 16.8447 187.854 16.8991 187.891 16.965C187.928 17.031 187.946 17.1059 187.942 17.1815C187.939 17.257 187.914 17.3301 187.872 17.3925L180.307 31.243Z" fill="#1E2346"/>
<path d="M209.948 31.573V36.7273C209.948 36.7678 209.94 36.808 209.924 36.8453C209.908 36.8827 209.885 36.9166 209.856 36.945C209.827 36.9734 209.792 36.9957 209.754 37.0106C209.717 37.0255 209.676 37.0328 209.635 37.0319H205.467C205.386 37.0336 205.308 37.0671 205.251 37.1253C205.194 37.1834 205.162 37.2616 205.162 37.343V48.5148C205.16 48.5961 205.126 48.6736 205.068 48.7306C205.009 48.7876 204.931 48.8195 204.849 48.8194H198.922C198.841 48.8194 198.764 48.7873 198.706 48.7302C198.649 48.6731 198.617 48.5956 198.617 48.5148V37.343C198.617 37.2605 198.584 37.1814 198.525 37.123C198.467 37.0647 198.387 37.0319 198.304 37.0319H194.143C194.102 37.0328 194.062 37.0255 194.024 37.0106C193.986 36.9957 193.951 36.9734 193.922 36.945C193.893 36.9166 193.87 36.8827 193.854 36.8453C193.839 36.808 193.83 36.7678 193.83 36.7273V31.573C193.832 31.4916 193.866 31.4141 193.924 31.3572C193.983 31.3002 194.061 31.2683 194.143 31.2683H209.635C209.717 31.2683 209.796 31.3002 209.854 31.3572C209.912 31.4141 209.946 31.4916 209.948 31.573Z" fill="#1E2347"/>
<path d="M230.59 40.0408C230.606 41.2145 230.373 42.3785 229.908 43.4568C229.442 44.5352 228.754 45.5038 227.888 46.2996C226.985 47.133 225.926 47.7802 224.771 48.2039C222.196 49.1008 219.392 49.1008 216.818 48.2039C215.666 47.7787 214.609 47.1316 213.708 46.2996C212.84 45.503 212.147 44.5358 211.673 43.4592C211.199 42.3825 210.954 41.2196 210.954 40.044C210.954 38.8684 211.199 37.7055 211.673 36.6289C212.147 35.5522 212.84 34.585 213.708 33.7884C214.612 32.9678 215.668 32.3316 216.818 31.9159C219.392 31.0189 222.196 31.0189 224.771 31.9159C225.923 32.3301 226.982 32.9664 227.888 33.7884C228.758 34.581 229.451 35.5475 229.921 36.6249C230.391 37.7022 230.627 38.8662 230.615 40.0408H230.59ZM223.541 40.0408C223.545 39.6749 223.466 39.3128 223.312 38.9808C223.167 38.6642 222.964 38.3778 222.713 38.1365C222.183 37.6513 221.489 37.3837 220.769 37.3875C220.399 37.3841 220.031 37.4508 219.686 37.5843C219.361 37.7134 219.063 37.9005 218.806 38.1365C218.557 38.378 218.356 38.6645 218.213 38.9808C217.933 39.6621 217.933 40.4259 218.213 41.1072C218.356 41.4235 218.557 41.71 218.806 41.9515C219.063 42.1875 219.361 42.3747 219.686 42.5037C220.031 42.6372 220.399 42.7039 220.769 42.7005C221.489 42.7043 222.183 42.4367 222.713 41.9515C222.964 41.7102 223.167 41.4238 223.312 41.1072C223.467 40.7732 223.545 40.4089 223.541 40.0408Z" fill="#1E2347"/>
<path d="M103.698 72.3628V68.294C103.698 68.2115 103.731 68.1324 103.789 68.0741C103.848 68.0157 103.927 67.983 104.01 67.983H113.346C113.387 67.983 113.428 67.991 113.466 68.0066C113.504 68.0223 113.538 68.0452 113.567 68.0741C113.596 68.103 113.619 68.1372 113.635 68.175C113.651 68.2127 113.659 68.2532 113.659 68.294V77.5298C112.822 78.4977 111.842 79.3326 110.753 80.0053C109.574 80.7237 108.314 81.3011 106.999 81.7255C105.261 82.2669 103.447 82.5241 101.626 82.4873C99.5472 82.508 97.4832 82.1309 95.5467 81.3764C93.7438 80.6716 92.0948 79.6263 90.6905 78.2978C89.3239 76.9847 88.2266 75.4195 87.4594 73.6895C86.6787 71.8852 86.2761 69.9413 86.2761 67.9766C86.2761 66.012 86.6787 64.068 87.4594 62.2638C88.225 60.5328 89.3226 58.9674 90.6905 57.6554C92.0926 56.3273 93.7424 55.2857 95.5467 54.5895C99.1545 53.2396 103.106 53.0992 106.801 54.1896C108.051 54.5891 109.259 55.1078 110.408 55.7384C111.38 56.3359 112.282 57.0384 113.098 57.8331C113.147 57.8853 113.177 57.9522 113.184 58.0234C113.191 58.0946 113.174 58.1661 113.136 58.2267L108.433 65.3805C108.412 65.4154 108.383 65.4455 108.35 65.4689C108.316 65.4923 108.278 65.5084 108.238 65.5161C108.197 65.5239 108.156 65.5232 108.116 65.514C108.076 65.5049 108.039 65.4875 108.006 65.463C107.573 65.1612 107.119 64.8897 106.648 64.6505C106.097 64.3562 105.519 64.116 104.921 63.9332C104.258 63.7205 103.566 63.6133 102.869 63.6158C101.561 63.5597 100.28 63.9972 99.2812 64.8409C98.8437 65.2427 98.4944 65.7305 98.2555 66.2735C98.0167 66.8165 97.8933 67.4029 97.8933 67.9957C97.8933 68.5885 98.0167 69.1749 98.2555 69.7178C98.4944 70.2608 98.8437 70.7486 99.2812 71.1504C100.28 71.9941 101.561 72.4316 102.869 72.3755L103.698 72.3628Z" fill="#1E2347"/>
<path d="M131.911 72.147C132.35 72.1574 132.787 72.077 133.194 71.911C133.601 71.7449 133.969 71.4968 134.275 71.1822C134.602 70.8295 134.854 70.4152 135.017 69.9639C135.18 69.5126 135.251 69.0333 135.225 68.5543V53.8151C135.225 53.7751 135.233 53.7355 135.248 53.6985C135.263 53.6616 135.286 53.628 135.314 53.5997C135.343 53.5714 135.376 53.5489 135.414 53.5336C135.451 53.5183 135.49 53.5104 135.531 53.5104H145.727C145.768 53.5096 145.808 53.5169 145.845 53.5319C145.883 53.5469 145.917 53.5693 145.946 53.5978C145.974 53.6262 145.997 53.6602 146.012 53.6975C146.027 53.7349 146.034 53.7749 146.033 53.8151V68.7003C146.049 70.6069 145.69 72.4981 144.975 74.2671C144.319 75.9013 143.332 77.3835 142.076 78.6216C140.796 79.8554 139.278 80.8184 137.615 81.4526C133.934 82.8069 129.888 82.8069 126.207 81.4526C124.543 80.82 123.025 79.8568 121.746 78.6216C120.49 77.382 119.501 75.9003 118.84 74.2671C118.134 72.4942 117.781 70.6012 117.801 68.6939V53.8151C117.801 53.7343 117.833 53.6568 117.891 53.5997C117.948 53.5425 118.026 53.5104 118.107 53.5104H128.304C128.385 53.5104 128.463 53.5425 128.52 53.5997C128.577 53.6568 128.61 53.7343 128.61 53.8151V68.5543C128.582 69.0368 128.653 69.5199 128.817 69.9746C128.981 70.4294 129.236 70.8466 129.566 71.2012C129.871 71.51 130.237 71.7532 130.64 71.9159C131.043 72.0786 131.476 72.1572 131.911 72.147Z" fill="#1E2347"/>
<path d="M161.469 82.4365H151.272C151.191 82.4365 151.113 82.4044 151.056 82.3473C150.998 82.2901 150.966 82.2126 150.966 82.1318V53.8151C150.965 53.7749 150.972 53.7349 150.987 53.6975C151.003 53.6602 151.025 53.6262 151.054 53.5978C151.082 53.5693 151.116 53.5469 151.154 53.5319C151.191 53.5169 151.231 53.5096 151.272 53.5104H161.469C161.509 53.5096 161.549 53.5169 161.587 53.5319C161.624 53.5469 161.658 53.5693 161.687 53.5978C161.715 53.6262 161.738 53.6602 161.753 53.6975C161.768 53.7349 161.775 53.7749 161.774 53.8151V82.1318C161.774 82.2126 161.742 82.2901 161.685 82.3473C161.628 82.4044 161.55 82.4365 161.469 82.4365Z" fill="#1E2347"/>
<path d="M195.8 67.9703C195.825 69.9873 195.473 71.9914 194.761 73.8799C194.087 75.6158 193.024 77.1749 191.651 78.4375C190.149 79.7726 188.381 80.7783 186.463 81.3891C184.117 82.1284 181.665 82.4821 179.205 82.4365H170.493C169.331 82.4411 168.17 82.3648 167.019 82.208C166.946 82.1972 166.879 82.1605 166.831 82.1044C166.783 82.0484 166.757 81.977 166.758 81.9033V53.8151C166.757 53.7749 166.765 53.7349 166.78 53.6975C166.795 53.6602 166.817 53.6262 166.846 53.5978C166.874 53.5693 166.908 53.5469 166.946 53.5319C166.983 53.5169 167.024 53.5096 167.064 53.5104H179.205C181.665 53.4661 184.116 53.8176 186.463 54.5515C188.383 55.1619 190.151 56.17 191.651 57.5094C193.022 58.7706 194.082 60.3304 194.748 62.067C195.465 63.9523 195.821 65.9545 195.8 67.9703ZM179.23 73.5118C179.903 73.552 180.576 73.4526 181.208 73.2198C181.84 72.9871 182.416 72.6261 182.901 72.1597C183.768 71.2584 184.207 69.8555 184.207 67.9513C184.207 66.047 183.768 64.6441 182.901 63.7428C182.416 63.2764 181.84 62.9154 181.208 62.6827C180.576 62.4499 179.903 62.3505 179.23 62.3907H177.873C177.792 62.3924 177.715 62.425 177.658 62.4818C177.601 62.5386 177.568 62.6151 177.567 62.6954V73.2071C177.568 73.2874 177.601 73.3639 177.658 73.4207C177.715 73.4775 177.792 73.5101 177.873 73.5118H179.23Z" fill="#1E2347"/>
<path d="M201.44 82.4173V76.0697C201.44 75.9618 201.58 75.8793 201.752 75.8793H230.621C230.787 75.8793 230.927 75.9618 230.927 76.0697V82.4173C230.927 82.5252 230.787 82.6077 230.621 82.6077H201.758C201.58 82.6077 201.44 82.5189 201.44 82.4173Z" fill="#F49B4D"/>
<path d="M201.44 60.042V53.6944C201.44 53.5865 201.58 53.504 201.752 53.504H230.621C230.787 53.504 230.927 53.5865 230.927 53.6944V60.042C230.927 60.1499 230.787 60.2324 230.621 60.2324H201.758C201.58 60.2324 201.44 60.1499 201.44 60.042Z" fill="#F49B4D"/>
<path d="M201.44 71.2138V64.8662C201.442 64.8386 201.45 64.8118 201.463 64.7873C201.476 64.7628 201.493 64.7411 201.515 64.7234C201.536 64.7057 201.561 64.6923 201.587 64.6842C201.614 64.676 201.641 64.6731 201.669 64.6757H222.789C222.844 64.6722 222.898 64.6902 222.94 64.7257C222.981 64.7613 223.007 64.8117 223.012 64.8662V71.2138C223.007 71.2682 222.981 71.3186 222.94 71.3542C222.898 71.3898 222.844 71.4077 222.789 71.4042H201.669C201.614 71.4078 201.559 71.3901 201.516 71.3547C201.474 71.3192 201.446 71.2688 201.44 71.2138Z" fill="#F49B4D"/>
</svg>
