<svg width="98" height="61" viewBox="0 0 98 61" fill="none" xmlns="http://www.w3.org/2000/svg">
<path fill-rule="evenodd" clip-rule="evenodd" d="M0 23H97.8033V61H0V23ZM27.1124 29.8524H30.6423V54.1475H27.1124V29.8524ZM43.832 36.4046C45.7334 36.4046 47.2584 37.0425 48.4068 38.3184C49.5552 39.5942 50.1294 41.4864 50.1294 43.9948V54.1475H46.5995V44.5138C46.5995 43.0001 46.2888 41.8648 45.6675 41.1079C45.0463 40.3295 44.1614 39.9402 43.013 39.9402C41.714 39.9402 40.688 40.3943 39.9349 41.3026C39.1819 42.1892 38.8053 43.4758 38.8053 45.1625V54.1475H35.2754V36.5992H38.6359V38.8374C39.2195 38.0373 39.9537 37.4318 40.8386 37.0209C41.7234 36.6101 42.7212 36.4046 43.832 36.4046ZM69.2072 54.1475V36.5992H65.6773V45.3571C65.6773 47.0439 65.3007 48.3413 64.5477 49.2495C63.8134 50.1362 62.8156 50.5795 61.5543 50.5795C60.4247 50.5795 59.5493 50.201 58.928 49.4442C58.3256 48.6657 58.0243 47.498 58.0243 45.941V36.5992H54.4944V46.4924C54.4944 49.0225 55.0686 50.9363 56.217 52.2337C57.3842 53.5096 58.9751 54.1475 60.9895 54.1475C61.9685 54.1475 62.8815 53.9421 63.7287 53.5312C64.5759 53.0987 65.2819 52.4932 65.8467 51.7147V54.1475H69.2072ZM77.1895 39.1293C78.2061 37.3128 79.9946 36.4046 82.555 36.4046V40.2646C82.2538 40.1997 81.9808 40.1673 81.7361 40.1673C80.3617 40.1673 79.2886 40.6322 78.5168 41.5621C77.7449 42.4703 77.3589 43.7894 77.3589 45.5193V54.1475H73.829V36.5992H77.1895V39.1293ZM18.6886 31.9008L22.112 29.8467V33.2868L18.6886 35.3242V31.9008ZM18.6886 37.395H22.112V54.1697H18.6886V37.395Z" fill="#364256"/>
<path d="M3.596 14H7.586C10.722 14 12.836 11.984 12.836 9.1C12.836 6.216 10.722 4.2 7.586 4.2H3.596V14ZM4.632 13.104V5.096H7.53C10.134 5.096 11.814 6.748 11.814 9.1C11.814 11.452 10.134 13.104 7.53 13.104H4.632ZM21.3784 10.318C21.3784 8.106 19.8804 6.58 17.8084 6.58C15.7364 6.58 14.2104 8.134 14.2104 10.318C14.2104 12.502 15.7784 14.07 18.0744 14.07C19.2364 14.07 20.2584 13.65 20.9164 12.866L20.3564 12.222C19.7964 12.866 18.9984 13.188 18.1024 13.188C16.4924 13.188 15.3164 12.166 15.2044 10.626H21.3644C21.3644 10.514 21.3784 10.402 21.3784 10.318ZM17.8084 7.434C19.2504 7.434 20.3004 8.442 20.4264 9.884H15.2044C15.3304 8.442 16.3804 7.434 17.8084 7.434ZM28.4729 6.636L25.6869 12.908L22.9289 6.636H21.8929L25.1549 14H26.1769L29.4529 6.636H28.4729ZM37.0737 10.318C37.0737 8.106 35.5757 6.58 33.5037 6.58C31.4317 6.58 29.9057 8.134 29.9057 10.318C29.9057 12.502 31.4737 14.07 33.7697 14.07C34.9317 14.07 35.9537 13.65 36.6117 12.866L36.0517 12.222C35.4917 12.866 34.6937 13.188 33.7977 13.188C32.1877 13.188 31.0117 12.166 30.8997 10.626H37.0597C37.0597 10.514 37.0737 10.402 37.0737 10.318ZM33.5037 7.434C34.9457 7.434 35.9957 8.442 36.1217 9.884H30.8997C31.0257 8.442 32.0757 7.434 33.5037 7.434ZM39.0969 14H40.0909V3.612H39.0969V14ZM45.8667 14.07C48.0227 14.07 49.6047 12.502 49.6047 10.318C49.6047 8.134 48.0227 6.58 45.8667 6.58C43.7107 6.58 42.1147 8.134 42.1147 10.318C42.1147 12.502 43.7107 14.07 45.8667 14.07ZM45.8667 13.188C44.2987 13.188 43.1227 12.04 43.1227 10.318C43.1227 8.596 44.2987 7.448 45.8667 7.448C47.4347 7.448 48.5967 8.596 48.5967 10.318C48.5967 12.04 47.4347 13.188 45.8667 13.188ZM55.428 6.58C54.21 6.58 53.188 7.112 52.586 8.092V6.636H51.634V16.716H52.628V12.614C53.244 13.566 54.252 14.07 55.428 14.07C57.528 14.07 59.096 12.558 59.096 10.318C59.096 8.092 57.528 6.58 55.428 6.58ZM55.358 13.188C53.79 13.188 52.614 12.04 52.614 10.318C52.614 8.61 53.79 7.448 55.358 7.448C56.912 7.448 58.102 8.61 58.102 10.318C58.102 12.04 56.912 13.188 55.358 13.188ZM67.5483 10.318C67.5483 8.106 66.0503 6.58 63.9783 6.58C61.9063 6.58 60.3803 8.134 60.3803 10.318C60.3803 12.502 61.9483 14.07 64.2443 14.07C65.4063 14.07 66.4283 13.65 67.0863 12.866L66.5263 12.222C65.9663 12.866 65.1683 13.188 64.2723 13.188C62.6623 13.188 61.4863 12.166 61.3743 10.626H67.5343C67.5343 10.514 67.5483 10.402 67.5483 10.318ZM63.9783 7.434C65.4203 7.434 66.4703 8.442 66.5963 9.884H61.3743C61.5003 8.442 62.5503 7.434 63.9783 7.434ZM70.5235 8.078V6.636H69.5715V14H70.5655V10.248C70.5655 8.512 71.5035 7.532 73.0435 7.532C73.1135 7.532 73.1975 7.546 73.2815 7.546V6.58C71.9235 6.58 70.9855 7.098 70.5235 8.078ZM82.6488 6.58C81.4728 6.58 80.4648 7.084 79.8488 8.036V3.612H78.8548V14H79.8068V12.544C80.4088 13.538 81.4308 14.07 82.6488 14.07C84.7488 14.07 86.3168 12.544 86.3168 10.318C86.3168 8.092 84.7488 6.58 82.6488 6.58ZM82.5788 13.188C81.0108 13.188 79.8348 12.04 79.8348 10.318C79.8348 8.596 81.0108 7.448 82.5788 7.448C84.1328 7.448 85.3228 8.596 85.3228 10.318C85.3228 12.04 84.1328 13.188 82.5788 13.188ZM93.346 6.636L90.574 12.894L87.802 6.636H86.766L90.056 13.986L89.734 14.7C89.314 15.624 88.866 15.932 88.208 15.932C87.676 15.932 87.228 15.736 86.864 15.372L86.402 16.114C86.85 16.562 87.508 16.786 88.194 16.786C89.244 16.786 90.028 16.324 90.644 14.882L94.326 6.636H93.346Z" fill="#364256"/>
</svg>
