<svg width="233" height="119" viewBox="0 0 233 119" fill="none" xmlns="http://www.w3.org/2000/svg">
<path d="M23.1609 9.91356C21.187 9.91356 19.4197 10.3058 17.8589 11.0904C16.344 11.8749 15.0587 13.0055 14.0029 14.4823C12.947 15.9129 12.1437 17.6666 11.5928 19.7433C11.0879 21.82 10.8354 24.1505 10.8354 26.7349C10.8354 30.2422 11.2486 33.2419 12.0748 35.7339C12.947 38.1798 14.3012 40.0489 16.1375 41.341C17.9737 42.6332 20.3148 43.2793 23.1609 43.2793C25.1808 43.2793 27.1776 43.0485 29.1516 42.5871C31.1714 42.1256 33.3519 41.4795 35.693 40.6488V49.4402C33.5355 50.317 31.4009 50.9631 29.2893 51.3784C27.1776 51.7938 24.8135 52.0015 22.1969 52.0015C17.1474 52.0015 12.97 50.9631 9.66483 48.8864C6.40556 46.7635 3.99554 43.81 2.43477 40.0258C0.873991 36.1954 0.0936036 31.742 0.0936036 26.6657C0.0936036 22.9276 0.59856 19.5126 1.60847 16.4206C2.61839 13.2824 4.08735 10.5827 6.01537 8.32142C7.98929 6.06012 10.3993 4.30646 13.2454 3.06043C16.1375 1.81441 19.4426 1.1914 23.1609 1.1914C25.5939 1.1914 28.0269 1.51444 30.4599 2.16053C32.9387 2.76047 35.3029 3.59115 37.5522 4.65258L34.1782 13.1671C32.342 12.2902 30.4828 11.5288 28.6007 10.8827C26.7645 10.2366 24.9512 9.91356 23.1609 9.91356Z" fill="white"/>
<path d="M53.7951 51.3092H44.7172V1.14922H53.7951V51.3092Z" fill="white"/>
<path d="M71.5475 51.3092H62.4696V14.1962H71.5475V51.3092ZM71.5475 10.7148H62.4696V1.14922H71.5475V10.7148Z" fill="white"/>
<path d="M95.957 52.1204C93.3569 52.1204 90.981 51.6923 88.8291 50.836C86.6773 49.9797 84.8281 48.7291 83.2815 47.0842C81.7573 45.4392 80.5694 43.4112 79.7176 41.0001C78.8658 38.5889 78.44 35.8286 78.44 32.7189C78.44 29.6769 78.8546 26.9503 79.684 24.5392C80.5133 22.1281 81.6901 20.1001 83.2143 18.4551C84.7609 16.7876 86.6101 15.5144 88.7619 14.6356C90.9137 13.7568 93.3121 13.3174 95.957 13.3174C97.9967 13.3174 99.8908 13.6216 101.639 14.23C103.387 14.8384 104.934 15.7398 106.279 16.9341C107.646 18.1284 108.767 19.6043 109.641 21.3619C110.538 23.097 111.143 25.1138 111.457 27.4122H101.908C101.863 26.3757 101.684 25.4631 101.37 24.6744C101.056 23.8857 100.63 23.2322 100.092 22.714C99.577 22.1732 98.9606 21.7675 98.2433 21.4971C97.526 21.2267 96.7639 21.0915 95.957 21.0915C94.7466 21.0915 93.6371 21.3394 92.6284 21.8351C91.6422 22.3084 90.7792 23.0407 90.0395 24.0322C89.3223 25.0011 88.7619 26.218 88.3584 27.6826C87.9774 29.1248 87.7869 30.8036 87.7869 32.7189C87.7869 34.6568 87.9774 36.3581 88.3584 37.8228C88.7619 39.265 89.3223 40.4705 90.0395 41.4395C90.7792 42.4084 91.6422 43.1408 92.6284 43.6365C93.6371 44.1097 94.7466 44.3463 95.957 44.3463C96.7191 44.3463 97.4476 44.2224 98.1424 43.9745C98.8373 43.7041 99.4537 43.3098 99.9916 42.7915C100.552 42.2732 101 41.631 101.337 40.8649C101.673 40.0762 101.863 39.1636 101.908 38.127H111.457C111.143 40.448 110.527 42.4873 109.608 44.2449C108.711 45.98 107.579 47.4334 106.212 48.6052C104.867 49.7769 103.32 50.6557 101.572 51.2416C99.8459 51.8275 97.9743 52.1204 95.957 52.1204Z" fill="white"/>
<path d="M150.391 51.3092H139.497L129.007 34.8822L127.024 36.8426V51.3092H117.912V1.14922H127.024V25.587L137.984 14.1962H149.92L135.295 28.5953L150.391 51.3092Z" fill="white"/>
<path d="M193.091 8.82194H177.221V51.3092H167.673V8.82194H151.87V0H193.091V8.82194Z" fill="white"/>
<path d="M215.483 13.3174C218.173 13.3174 220.594 13.7568 222.745 14.6356C224.897 15.5144 226.735 16.7876 228.259 18.4551C229.784 20.1001 230.949 22.1281 231.756 24.5392C232.585 26.9503 233 29.6769 233 32.7189C233 35.7835 232.574 38.5213 231.722 40.9325C230.893 43.3436 229.716 45.3829 228.192 47.0504C226.668 48.6953 224.83 49.9572 222.678 50.836C220.526 51.6923 218.128 52.1204 215.483 52.1204C212.883 52.1204 210.507 51.6923 208.355 50.836C206.203 49.9797 204.354 48.7291 202.807 47.0842C201.283 45.4392 200.095 43.4112 199.244 41.0001C198.414 38.5889 198 35.8286 198 32.7189C198 29.6769 198.414 26.9503 199.244 24.5392C200.073 22.1281 201.25 20.1001 202.774 18.4551C204.32 16.7876 206.17 15.5144 208.321 14.6356C210.473 13.7568 212.86 13.3174 215.483 13.3174ZM215.483 44.3463C216.693 44.3463 217.792 44.1097 218.778 43.6365C219.787 43.1408 220.65 42.4084 221.367 41.4395C222.084 40.4705 222.633 39.265 223.014 37.8228C223.418 36.3581 223.619 34.6568 223.619 32.7189C223.619 30.8036 223.418 29.1248 223.014 27.6826C222.633 26.218 222.084 25.0011 221.367 24.0322C220.65 23.0407 219.787 22.3084 218.778 21.8351C217.792 21.3394 216.693 21.0915 215.483 21.0915C214.273 21.0915 213.163 21.3394 212.154 21.8351C211.168 22.3084 210.316 23.0407 209.599 24.0322C208.882 25.0011 208.321 26.218 207.918 27.6826C207.537 29.1248 207.346 30.8036 207.346 32.7189C207.346 34.6568 207.537 36.3581 207.918 37.8228C208.321 39.265 208.882 40.4705 209.599 41.4395C210.316 42.4084 211.168 43.1408 212.154 43.6365C213.163 44.1097 214.273 44.3463 215.483 44.3463Z" fill="white"/>
<path d="M24.7794 119C21.081 119 17.7076 118.369 14.6592 117.107C11.6108 115.823 8.99947 114.031 6.82525 111.733C4.67345 109.412 2.99235 106.629 1.78196 103.384C0.593988 100.117 0 96.4888 0 92.5004C0 88.4443 0.593988 84.7939 1.78196 81.549C2.99235 78.2816 4.67345 75.51 6.82525 73.2341C8.99947 70.9356 11.5884 69.1667 14.5919 67.9274C17.6179 66.688 20.9465 66.0684 24.5776 66.0684C27.626 66.0684 30.4727 66.5078 33.1176 67.3866C35.7625 68.2654 38.0824 69.516 40.0773 71.1384C42.0947 72.7383 43.7197 74.6762 44.9525 76.9521C46.2077 79.228 46.9586 81.7743 47.2052 84.591H37.4212C37.2867 83.0137 36.8945 81.6166 36.2444 80.3998C35.6168 79.1604 34.7539 78.1126 33.6556 77.2563C32.5572 76.4001 31.246 75.7466 29.7218 75.2959C28.22 74.8452 26.5389 74.6199 24.6785 74.6199C22.4595 74.6199 20.4309 75.0142 18.5929 75.8029C16.7773 76.5916 15.2083 77.7521 13.8859 79.2844C12.5858 80.7941 11.5659 82.6644 10.8263 84.8953C10.109 87.1036 9.75036 89.6386 9.75036 92.5004C9.75036 95.3171 10.109 97.8409 10.8263 100.072C11.5659 102.28 12.5858 104.162 13.8859 105.716C15.2083 107.249 16.7886 108.432 18.6266 109.265C20.4646 110.077 22.4931 110.482 24.7121 110.482C27.895 110.482 30.6072 110.02 32.8486 109.096C35.1125 108.15 37.0177 106.685 38.5644 104.702V99.3281H25.9225V90.5061H47.9785V118.189H40.6489L39.4385 114.505C37.6678 115.992 35.5608 117.118 33.1176 117.885C30.6968 118.628 27.9174 119 24.7794 119Z" fill="white"/>
<path d="M79.9193 115.924C77.2744 117.975 74.3829 119 71.2449 119C62.5256 119 58.1659 114.29 58.1659 104.871V81.0758H67.3784V104.567C67.3784 106.866 67.7482 108.511 68.4879 109.502C69.25 110.471 70.4716 110.955 72.1527 110.955C74.9321 110.955 77.521 109.468 79.9193 106.494V81.0758H88.9973V118.189H79.9193V115.924Z" fill="white"/>
<path d="M108.195 118.189H99.1175V81.0758H108.195V118.189ZM108.195 77.5943H99.1175V68.0288H108.195V77.5943Z" fill="white"/>
<path d="M138.859 91.2836C136.572 89.0753 134.084 87.9711 131.395 87.9711C129.265 87.9711 127.573 88.9626 126.318 90.9455C125.062 92.906 124.435 95.8804 124.435 99.8689C124.435 103.655 125.018 106.494 126.183 108.387C127.371 110.279 129.03 111.226 131.159 111.226C133.849 111.226 136.415 109.615 138.859 106.392V91.2836ZM138.859 116.228C136.46 118.076 133.737 119 130.688 119C128.156 119 125.914 118.549 123.964 117.648C122.036 116.724 120.411 115.428 119.089 113.761C117.766 112.093 116.769 110.088 116.097 107.744C115.424 105.378 115.088 102.753 115.088 99.8689C115.088 96.8268 115.491 94.089 116.298 91.6554C117.128 89.2217 118.248 87.1599 119.66 85.4699C121.095 83.7573 122.776 82.4503 124.704 81.549C126.654 80.6477 128.75 80.197 130.991 80.197C133.927 80.197 136.55 80.8617 138.859 82.1912V68.0288H147.937V118.189H138.859V116.228Z" fill="white"/>
<path d="M174.531 119C171.842 119 169.376 118.572 167.135 117.716C164.916 116.837 162.999 115.575 161.385 113.93C159.794 112.262 158.561 110.223 157.687 107.812C156.813 105.401 156.376 102.663 156.376 99.5985C156.376 96.6015 156.801 93.9087 157.653 91.5202C158.505 89.1091 159.693 87.0698 161.217 85.4023C162.764 83.7348 164.602 82.4503 166.731 81.549C168.883 80.6477 171.259 80.197 173.859 80.197C176.549 80.197 178.97 80.6364 181.121 81.5152C183.273 82.394 185.111 83.6672 186.635 85.3347C188.16 86.9796 189.325 89.0076 190.132 91.4188C190.961 93.8299 191.376 96.5564 191.376 99.5985V102.539H165.958C166.182 104.004 166.552 105.277 167.067 106.359C167.583 107.44 168.211 108.342 168.95 109.063C169.69 109.784 170.53 110.325 171.472 110.685C172.436 111.046 173.456 111.226 174.531 111.226C175.338 111.226 176.145 111.091 176.952 110.82C177.759 110.55 178.488 110.156 179.138 109.637C179.788 109.096 180.314 108.443 180.718 107.677C181.144 106.911 181.368 106.021 181.39 105.007H191.006C190.67 107.26 190.02 109.254 189.056 110.989C188.092 112.724 186.882 114.189 185.425 115.383C183.99 116.555 182.343 117.456 180.483 118.087C178.622 118.696 176.638 119 174.531 119ZM181.558 94.7988C180.976 92.5004 180.012 90.7878 178.667 89.6611C177.344 88.5344 175.742 87.9711 173.859 87.9711C172.043 87.9711 170.452 88.5344 169.085 89.6611C167.717 90.7878 166.742 92.5004 166.16 94.7988H181.558Z" fill="white"/>
</svg>
