<svg width="17" height="17" viewBox="0 0 17 17" fill="none" xmlns="http://www.w3.org/2000/svg">
<path d="M2.125 4.25H3.54167H14.875" stroke="#B0B0B0" stroke-width="2" stroke-linecap="round" stroke-linejoin="round"/>
<path d="M5.66797 4.25033V2.83366C5.66797 2.45794 5.81722 2.0976 6.0829 1.83192C6.34858 1.56625 6.70891 1.41699 7.08464 1.41699H9.91797C10.2937 1.41699 10.654 1.56625 10.9197 1.83192C11.1854 2.0976 11.3346 2.45794 11.3346 2.83366V4.25033M13.4596 4.25033V14.167C13.4596 14.5427 13.3104 14.903 13.0447 15.1687C12.779 15.4344 12.4187 15.5837 12.043 15.5837H4.95964C4.58391 15.5837 4.22358 15.4344 3.9579 15.1687C3.69222 14.903 3.54297 14.5427 3.54297 14.167V4.25033H13.4596Z" stroke="#B0B0B0" stroke-width="2" stroke-linecap="round" stroke-linejoin="round"/>
</svg>
