<svg width="30" height="30" viewBox="0 0 30 30" fill="none" xmlns="http://www.w3.org/2000/svg">
<g clip-path="url(#clip0_27_34344)">
<path fill-rule="evenodd" clip-rule="evenodd" d="M24.4629 0.816783C24.3984 0.845436 22.6682 2.55204 20.6178 4.60926C16.5872 8.65329 16.6326 8.60114 16.3487 9.52153C16.1713 10.0964 16.1346 10.8716 16.2584 11.4258C16.3124 11.6675 16.3612 11.8932 16.3668 11.9273C16.3724 11.9614 15.909 12.4049 15.337 12.913L14.297 13.8368L14.1003 13.6713C13.9921 13.5804 13.5325 13.1781 13.0791 12.7775L12.2546 12.0491L12.3666 11.8296C12.4281 11.7088 12.5493 11.3775 12.6357 11.0931C12.7767 10.6294 12.7934 10.4799 12.7978 9.63872C12.8032 8.6169 12.7566 8.35604 12.4181 7.51047C12.1415 6.81977 11.6892 6.1944 10.9467 5.47587C9.2431 3.82733 7.30143 2.73321 5.38752 2.34315C4.67414 2.19778 3.62824 2.18741 3.02912 2.31977C1.89803 2.56967 0.895312 3.34563 0.423574 4.33598C0.114785 4.98426 0 5.52128 0 6.31739C0 8.25866 0.887578 10.3725 2.55088 12.3926C3.0982 13.0574 3.88646 13.8382 4.27734 14.1029C5.76943 15.1133 7.73631 15.3385 9.35801 14.6846L9.83326 14.493L10.7889 15.5725C11.3146 16.1662 11.8199 16.7154 11.9119 16.7928C12.1412 16.9857 12.4177 16.9782 12.666 16.7725C13.6941 15.9206 17.5392 12.4372 17.5866 12.3146C17.6348 12.1901 17.6171 12.0685 17.5 11.7188C17.2156 10.87 17.2409 10.1978 17.5856 9.43669C17.7478 9.07856 18.0092 8.8027 21.4774 5.33014L25.1953 1.60745V1.36364C25.1953 0.953951 24.807 0.663971 24.4629 0.816783ZM23.1012 5.28878L20.1562 8.23376V8.48483C20.1562 8.83153 20.3482 9.02348 20.6949 9.02348H20.946L23.891 6.0785C26.7495 3.21995 26.8359 3.12696 26.8359 2.90993C26.8359 2.59762 26.5821 2.3438 26.2698 2.3438C26.0528 2.3438 25.9598 2.43022 23.1012 5.28878ZM3.20121 3.42913C2.45027 3.61897 1.76854 4.14755 1.44105 4.79383C0.481934 6.68665 1.6507 9.9754 4.18523 12.5153C4.98557 13.3173 5.60209 13.6665 6.56133 13.8608C7.48172 14.0472 8.47658 13.8993 9.38818 13.4406C9.825 13.2207 10.1228 13.1893 10.2977 13.3448C10.3611 13.4012 10.8408 13.9292 11.3636 14.5183L12.3142 15.5893L12.6662 15.2801C12.8598 15.1099 13.1147 14.8871 13.2328 14.7849C13.3712 14.6649 13.4265 14.5799 13.3887 14.5451C13.3564 14.5154 12.8423 14.0599 12.2461 13.5329C11.6499 13.0058 11.13 12.5337 11.0907 12.4836C10.9663 12.325 11.0094 12.0213 11.214 11.6148C11.6759 10.6969 11.8221 9.71548 11.6347 8.79051C11.4325 7.79278 11.0436 7.1237 10.1841 6.29477C8.72918 4.89163 7.10912 3.93098 5.4818 3.50641C4.86205 3.34469 3.69193 3.30508 3.20121 3.42913ZM27.6562 3.85633C27.5548 3.87057 26.6488 4.73506 24.7076 6.66995C23.1664 8.2061 21.8521 9.53665 21.7867 9.62671C21.6029 9.88012 21.6287 10.1856 21.8505 10.3838C22.0862 10.5943 22.3041 10.5923 22.5938 10.3771C22.8654 10.1751 28.1251 4.89878 28.2636 4.68913C28.4001 4.48264 28.3822 4.25483 28.2135 4.05444C28.0628 3.87538 27.9091 3.82071 27.6562 3.85633ZM29.1797 5.6588C29.0991 5.71352 27.3984 7.38631 25.4004 9.37604C23.1812 11.586 21.665 13.0516 21.5039 13.1423C20.8477 13.5119 19.9187 13.5869 19.1895 13.3291C18.6819 13.1497 18.5056 13.147 18.3126 13.3155C18.2296 13.388 15.3079 16.6633 11.8201 20.594C5.95922 27.1989 5.45256 27.7539 5.13615 27.9156C3.96926 28.5119 2.59195 27.5623 2.71148 26.2438C2.77283 25.567 2.76504 25.5752 6.33908 22.4035C8.13727 20.8077 9.66146 19.4347 9.72615 19.3525C10.0741 18.9101 9.55658 18.2603 9.06703 18.525C8.98711 18.5682 7.42131 19.9365 5.58738 21.5656C3.40512 23.5042 2.18807 24.6256 2.06502 24.8114C1.65059 25.4371 1.48348 26.2964 1.63887 27.0035C1.95299 28.4332 3.39129 29.4212 4.81605 29.1859C5.28973 29.1077 5.83717 28.8667 6.16975 28.59C6.32736 28.4589 12.2344 21.8427 14.2386 19.5524C14.2614 19.5265 16.0297 21.4776 18.1682 23.8884C20.3067 26.2991 22.1624 28.37 22.2919 28.4904C22.8237 28.9847 23.675 29.2788 24.3882 29.2147C25.7848 29.089 26.8461 28.0374 26.9876 26.6392C27.0582 25.941 26.7524 25.0341 26.2703 24.5119C26.1107 24.3391 17.327 16.5251 17.1163 16.3684C17.0931 16.3512 18.6204 14.6045 18.76 14.4888C18.819 14.4398 18.9287 14.4449 19.1901 14.5089C19.6627 14.6247 20.561 14.6254 21.046 14.5104C21.6042 14.3781 22.1507 14.1027 22.6362 13.709C22.8674 13.5215 24.6189 11.803 26.5283 9.89003L30 6.41184V6.16821C30 5.71399 29.529 5.42149 29.1797 5.6588ZM15.7291 17.8808C15.4086 18.2406 15.1259 18.5693 15.1008 18.6111C15.0698 18.6628 16.3195 20.1095 19.0028 23.1278C21.1741 25.5701 23.0143 27.6265 23.0922 27.6974C23.4946 28.0637 24.3027 28.199 24.8099 27.9851C25.8387 27.5512 26.1963 26.2761 25.5363 25.3948C25.3873 25.1958 16.4323 17.2266 16.3577 17.2266C16.3324 17.2266 16.0495 17.521 15.7291 17.8808Z" fill="#B0B0B0"/>
</g>
<defs>
<clipPath id="clip0_27_34344">
<rect width="30" height="30" fill="white"/>
</clipPath>
</defs>
</svg>
