<svg width="24" height="27" viewBox="0 0 24 27" fill="none" xmlns="http://www.w3.org/2000/svg">
<path d="M21 11.4869C21 18.533 12 24.5725 12 24.5725C12 24.5725 3 18.533 3 11.4869C3 9.08429 3.94821 6.78005 5.63604 5.08112C7.32387 3.38218 9.61305 2.42773 12 2.42773C14.3869 2.42773 16.6761 3.38218 18.364 5.08112C20.0518 6.78005 21 9.08429 21 11.4869Z" stroke="white" stroke-width="1.6" stroke-linecap="round" stroke-linejoin="round"/>
<path d="M12 14.5063C13.6569 14.5063 15 13.1543 15 11.4865C15 9.81878 13.6569 8.4668 12 8.4668C10.3431 8.4668 9 9.81878 9 11.4865C9 13.1543 10.3431 14.5063 12 14.5063Z" stroke="white" stroke-width="1.6" stroke-linecap="round" stroke-linejoin="round"/>
</svg>
