<svg width="24" height="28" viewBox="0 0 24 28" fill="none" xmlns="http://www.w3.org/2000/svg">
<path d="M21 11.9869C21 19.033 12 25.0725 12 25.0725C12 25.0725 3 19.033 3 11.9869C3 9.58429 3.94821 7.28005 5.63604 5.58112C7.32387 3.88218 9.61305 2.92773 12 2.92773C14.3869 2.92773 16.6761 3.88218 18.364 5.58112C20.0518 7.28005 21 9.58429 21 11.9869Z" stroke="#1E293B" stroke-width="1.6" stroke-linecap="round" stroke-linejoin="round"/>
<path d="M12 15.0065C13.6569 15.0065 15 13.6545 15 11.9868C15 10.319 13.6569 8.96704 12 8.96704C10.3431 8.96704 9 10.319 9 11.9868C9 13.6545 10.3431 15.0065 12 15.0065Z" stroke="#1E293B" stroke-width="1.6" stroke-linecap="round" stroke-linejoin="round"/>
</svg>
