<svg width="24" height="28" viewBox="0 0 24 28" fill="none" xmlns="http://www.w3.org/2000/svg">
<path d="M21 11.9868C21 19.0329 12 25.0723 12 25.0723C12 25.0723 3 19.0329 3 11.9868C3 9.58417 3.94821 7.27992 5.63604 5.58099C7.32387 3.88206 9.61305 2.92761 12 2.92761C14.3869 2.92761 16.6761 3.88206 18.364 5.58099C20.0518 7.27992 21 9.58417 21 11.9868Z" stroke="#1E293B" stroke-width="1.6" stroke-linecap="round" stroke-linejoin="round"/>
<path d="M12 15.0066C13.6569 15.0066 15 13.6546 15 11.9868C15 10.3191 13.6569 8.9671 12 8.9671C10.3431 8.9671 9 10.3191 9 11.9868C9 13.6546 10.3431 15.0066 12 15.0066Z" stroke="#1E293B" stroke-width="1.6" stroke-linecap="round" stroke-linejoin="round"/>
</svg>
