<svg width="61" height="31" viewBox="0 0 61 31" fill="none" xmlns="http://www.w3.org/2000/svg">
<path d="M6.06359 2.58252C5.54682 2.58252 5.08412 2.68471 4.67551 2.88909C4.27891 3.09346 3.9424 3.388 3.66599 3.7727C3.38957 4.14539 3.17925 4.60222 3.03504 5.14321C2.90284 5.6842 2.83674 6.29131 2.83674 6.96455C2.83674 7.87822 2.9449 8.65965 3.16123 9.30884C3.38957 9.946 3.7441 10.4329 4.22483 10.7695C4.70555 11.1061 5.31847 11.2744 6.06359 11.2744C6.59239 11.2744 7.11518 11.2143 7.63195 11.0941C8.16075 10.9739 8.73161 10.8056 9.34453 10.5892V12.8794C8.77968 13.1078 8.22084 13.2761 7.66801 13.3843C7.11518 13.4925 6.49625 13.5466 5.81121 13.5466C4.48923 13.5466 3.39558 13.2761 2.53028 12.7351C1.67699 12.1821 1.04604 11.4127 0.637428 10.4269C0.228813 9.42906 0.0245057 8.26893 0.0245057 6.94651C0.0245057 5.97273 0.156705 5.0831 0.421103 4.27763C0.6855 3.46013 1.07008 2.75684 1.57484 2.16776C2.09162 1.57869 2.72257 1.12185 3.46769 0.797256C4.22483 0.472662 5.09013 0.310364 6.06359 0.310364C6.70055 0.310364 7.33751 0.394518 7.97447 0.562827C8.62345 0.719113 9.24238 0.935509 9.83127 1.21202L8.94794 3.43008C8.46721 3.20166 7.98048 3.00329 7.48774 2.83499C7.00701 2.66668 6.5323 2.58252 6.06359 2.58252Z" fill="#1E293B"/>
<path d="M14.0837 13.3663H11.7071V0.299376H14.0837V13.3663Z" fill="#1E293B"/>
<path d="M18.7313 13.3663H16.3547V3.69818H18.7313V13.3663ZM18.7313 2.79124H16.3547V0.299376H18.7313V2.79124Z" fill="#1E293B"/>
<path d="M25.1218 13.5776C24.4411 13.5776 23.819 13.4661 23.2557 13.243C22.6924 13.0199 22.2082 12.6941 21.8033 12.2656C21.4043 11.8371 21.0933 11.3088 20.8703 10.6807C20.6473 10.0526 20.5358 9.33349 20.5358 8.52342C20.5358 7.73095 20.6444 7.02067 20.8615 6.39256C21.0786 5.76446 21.3867 5.23615 21.7857 4.80763C22.1906 4.37324 22.6747 4.04158 23.2381 3.81264C23.8014 3.58371 24.4293 3.46924 25.1218 3.46924C25.6558 3.46924 26.1517 3.54849 26.6094 3.70698C27.0671 3.86548 27.472 4.10028 27.8241 4.4114C28.1821 4.72251 28.4755 5.10701 28.7043 5.56488C28.9391 6.01687 29.0975 6.54225 29.1797 7.141H26.6798C26.6681 6.87098 26.6211 6.63324 26.539 6.42778C26.4568 6.22233 26.3453 6.05209 26.2045 5.91708C26.0695 5.7762 25.9081 5.67054 25.7203 5.6001C25.5326 5.52965 25.333 5.49443 25.1218 5.49443C24.8049 5.49443 24.5144 5.55901 24.2504 5.68815C23.9922 5.81142 23.7662 6.0022 23.5726 6.26048C23.3848 6.5129 23.2381 6.82989 23.1325 7.21144C23.0327 7.58713 22.9828 8.02446 22.9828 8.52342C22.9828 9.02825 23.0327 9.47144 23.1325 9.853C23.2381 10.2287 23.3848 10.5427 23.5726 10.7952C23.7662 11.0476 23.9922 11.2383 24.2504 11.3675C24.5144 11.4908 24.8049 11.5524 25.1218 11.5524C25.3213 11.5524 25.512 11.5201 25.6939 11.4555C25.8759 11.3851 26.0372 11.2824 26.1781 11.1474C26.3248 11.0123 26.4421 10.845 26.5302 10.6455C26.6182 10.44 26.6681 10.2023 26.6798 9.93225H29.1797C29.0975 10.5369 28.9361 11.0681 28.6955 11.526C28.4608 11.978 28.1645 12.3566 27.8065 12.6619C27.4544 12.9671 27.0495 13.196 26.5918 13.3487C26.1399 13.5013 25.6499 13.5776 25.1218 13.5776Z" fill="#1E293B"/>
<path d="M39.3727 13.3663H36.5208L33.7745 9.08695L33.2551 9.59765V13.3663H30.8697V0.299376H33.2551V6.66552L36.1247 3.69818H39.2495L35.4205 7.44918L39.3727 13.3663Z" fill="#1E293B"/>
<path d="M50.5517 2.29815H46.397V13.3663H43.8971V2.29815H39.76V0H50.5517V2.29815Z" fill="#1E293B"/>
<path d="M56.414 3.46924C57.1182 3.46924 57.7519 3.58371 58.3153 3.81264C58.8786 4.04158 59.3598 4.37324 59.7589 4.80763C60.1579 5.23615 60.4631 5.76446 60.6743 6.39256C60.8914 7.02067 61 7.73095 61 8.52342C61 9.32175 60.8885 10.035 60.6655 10.6631C60.4484 11.2912 60.1403 11.8224 59.7413 12.2568C59.3422 12.6853 58.861 13.0141 58.2977 13.243C57.7343 13.4661 57.1064 13.5776 56.414 13.5776C55.7333 13.5776 55.1113 13.4661 54.5479 13.243C53.9846 13.0199 53.5004 12.6941 53.0955 12.2656C52.6965 11.8371 52.3855 11.3088 52.1625 10.6807C51.9454 10.0526 51.8368 9.33349 51.8368 8.52342C51.8368 7.73095 51.9454 7.02067 52.1625 6.39256C52.3796 5.76446 52.6877 5.23615 53.0867 4.80763C53.4916 4.37324 53.9758 4.04158 54.5391 3.81264C55.1025 3.58371 55.7274 3.46924 56.414 3.46924ZM56.414 11.5524C56.7309 11.5524 57.0184 11.4908 57.2766 11.3675C57.5407 11.2383 57.7666 11.0476 57.9544 10.7952C58.1422 10.5427 58.286 10.2287 58.3857 9.853C58.4913 9.47144 58.5442 9.02825 58.5442 8.52342C58.5442 8.02446 58.4913 7.58713 58.3857 7.21144C58.286 6.82989 58.1422 6.5129 57.9544 6.26048C57.7666 6.0022 57.5407 5.81142 57.2766 5.68815C57.0184 5.55901 56.7309 5.49443 56.414 5.49443C56.0971 5.49443 55.8066 5.55901 55.5426 5.68815C55.2844 5.81142 55.0614 6.0022 54.8736 6.26048C54.6858 6.5129 54.5391 6.82989 54.4335 7.21144C54.3337 7.58713 54.2838 8.02446 54.2838 8.52342C54.2838 9.02825 54.3337 9.47144 54.4335 9.853C54.5391 10.2287 54.6858 10.5427 54.8736 10.7952C55.0614 11.0476 55.2844 11.2383 55.5426 11.3675C55.8066 11.4908 56.0971 11.5524 56.414 11.5524Z" fill="#1E293B"/>
<path d="M6.4873 31C5.51905 31 4.63588 30.8356 3.83781 30.5069C3.03973 30.1723 2.35608 29.7056 1.78687 29.1069C1.22352 28.5023 0.783406 27.7773 0.466522 26.932C0.155507 26.0808 0 25.1357 0 24.0967C0 23.0401 0.155507 22.0892 0.466522 21.2439C0.783406 20.3927 1.22352 19.6707 1.78687 19.0778C2.35608 18.479 3.03386 18.0182 3.8202 17.6954C4.61241 17.3725 5.48384 17.2111 6.43449 17.2111C7.23256 17.2111 7.97783 17.3255 8.67027 17.5545C9.36272 17.7834 9.97008 18.1092 10.4924 18.5319C11.0205 18.9486 11.4459 19.4535 11.7687 20.0464C12.0973 20.6392 12.2939 21.3026 12.3584 22.0363H9.79697C9.76176 21.6254 9.65907 21.2615 9.48889 20.9445C9.32458 20.6216 9.09865 20.3487 8.81111 20.1256C8.52357 19.9025 8.18028 19.7323 7.78124 19.6149C7.38807 19.4975 6.94796 19.4388 6.4609 19.4388C5.87994 19.4388 5.34887 19.5415 4.86768 19.747C4.39235 19.9524 3.98158 20.2547 3.63535 20.6539C3.295 21.0472 3.02799 21.5344 2.83434 22.1156C2.64656 22.6908 2.55267 23.3512 2.55267 24.0967C2.55267 24.8305 2.64656 25.488 2.83434 26.0691C3.02799 26.6444 3.295 27.1345 3.63535 27.5396C3.98158 27.9387 4.39529 28.2469 4.87648 28.4641C5.35767 28.6754 5.88875 28.7811 6.4697 28.7811C7.30298 28.7811 8.01303 28.6608 8.59986 28.4201C9.19254 28.1735 9.69134 27.792 10.0962 27.2754V25.8754H6.78658V23.5772H12.5609V30.7887H10.642L10.3251 29.8289C9.86152 30.2163 9.30991 30.5098 8.67027 30.7094C8.03651 30.9031 7.30885 31 6.4873 31Z" fill="#1E293B"/>
<path d="M20.9231 30.1987C20.2306 30.7329 19.4736 31 18.6521 31C16.3694 31 15.228 29.7731 15.228 27.3194V21.1206H17.6398V27.2402C17.6398 27.8389 17.7367 28.2675 17.9303 28.5257C18.1298 28.7782 18.4496 28.9044 18.8898 28.9044C19.6174 28.9044 20.2952 28.5169 20.9231 27.7421V21.1206H23.2997V30.7887H20.9231V30.1987Z" fill="#1E293B"/>
<path d="M28.3258 30.7887H25.9492V21.1206H28.3258V30.7887ZM28.3258 20.2136H25.9492V17.7218H28.3258V20.2136Z" fill="#1E293B"/>
<path d="M36.3535 23.7797C35.755 23.2045 35.1036 22.9168 34.3994 22.9168C33.8419 22.9168 33.3989 23.1751 33.0703 23.6917C32.7417 24.2024 32.5773 24.9773 32.5773 26.0163C32.5773 27.0024 32.7299 27.7421 33.0351 28.2352C33.3461 28.7283 33.7803 28.9748 34.3378 28.9748C35.042 28.9748 35.7139 28.5551 36.3535 27.7157V23.7797ZM36.3535 30.278C35.7256 30.7593 35.0127 31 34.2146 31C33.5515 31 32.9646 30.8826 32.4541 30.6478C31.9494 30.4071 31.524 30.0696 31.1778 29.6352C30.8316 29.2008 30.5704 28.6784 30.3944 28.0679C30.2183 27.4515 30.1303 26.7676 30.1303 26.0163C30.1303 25.2238 30.2359 24.5106 30.4472 23.8766C30.6643 23.2426 30.9577 22.7055 31.3274 22.2653C31.703 21.8191 32.1431 21.4787 32.6478 21.2439C33.1583 21.0091 33.707 20.8916 34.2938 20.8916C35.0625 20.8916 35.7491 21.0648 36.3535 21.4112V17.7218H38.7302V30.7887H36.3535V30.278Z" fill="#1E293B"/>
<path d="M45.6928 31C44.9886 31 44.3431 30.8885 43.7563 30.6654C43.1753 30.4365 42.6736 30.1077 42.2511 29.6792C41.8344 29.2448 41.5117 28.7136 41.2828 28.0855C41.054 27.4574 40.9395 26.7442 40.9395 25.9458C40.9395 25.1651 41.051 24.4636 41.274 23.8414C41.497 23.2133 41.808 22.682 42.2071 22.2476C42.612 21.8133 43.0932 21.4787 43.6507 21.2439C44.214 21.0091 44.836 20.8916 45.5167 20.8916C46.2209 20.8916 46.8547 21.0061 47.418 21.2351C47.9814 21.464 48.4626 21.7956 48.8616 22.23C49.2607 22.6586 49.5658 23.1869 49.7771 23.815C49.9942 24.4431 50.1027 25.1534 50.1027 25.9458V26.7119H43.4482C43.5069 27.0934 43.6037 27.4251 43.7387 27.7069C43.8736 27.9886 44.038 28.2234 44.2316 28.4113C44.4253 28.5991 44.6453 28.74 44.8918 28.8339C45.1441 28.9278 45.4111 28.9748 45.6928 28.9748C45.904 28.9748 46.1153 28.9396 46.3266 28.8691C46.5378 28.7987 46.7285 28.696 46.8987 28.561C47.0689 28.4201 47.2068 28.2498 47.3124 28.0503C47.4239 27.8507 47.4826 27.6188 47.4885 27.3547H50.0059C49.9179 27.9417 49.7477 28.4612 49.4954 28.9132C49.243 29.3652 48.9262 29.7467 48.5447 30.0578C48.1692 30.3631 47.7379 30.5979 47.2508 30.7623C46.7637 30.9208 46.2444 31 45.6928 31ZM47.5325 24.6955C47.3799 24.0967 47.1276 23.6506 46.7755 23.3571C46.4292 23.0636 46.0097 22.9168 45.5167 22.9168C45.0414 22.9168 44.6248 23.0636 44.2668 23.3571C43.9089 23.6506 43.6536 24.0967 43.501 24.6955H47.5325Z" fill="#1E293B"/>
</svg>
