<svg width="30" height="30" viewBox="0 0 30 30" fill="none" xmlns="http://www.w3.org/2000/svg">
<g clip-path="url(#clip0_27_34340)">
<path fill-rule="evenodd" clip-rule="evenodd" d="M10.4003 0.213054C10.3036 0.263503 9.94206 0.584011 9.59677 0.925378L8.96905 1.54594L8.3663 1.29405C6.86689 0.667331 6.57983 0.577389 6.07206 0.575104C5.57073 0.572819 5.08294 0.709108 4.71673 0.953737C4.39804 1.16661 2.86528 2.71923 2.73767 2.95841C2.55462 3.30159 2.56247 3.81135 2.75665 4.19046C2.89628 4.46303 3.22757 4.72172 7.8955 8.20255C10.6397 10.2489 12.8863 11.9364 12.8878 11.9525C12.8893 11.9687 12.1564 12.8289 11.259 13.8642C10.3617 14.8995 9.61019 15.7916 9.58909 15.8466C9.51796 16.0319 9.55001 16.1759 9.69456 16.3204C9.87023 16.4961 10.1265 16.5078 10.2981 16.3478C10.3668 16.2839 12.631 13.6801 15.3296 10.5617C18.0282 7.44335 20.4514 4.67743 20.7144 4.4151C22.2823 2.85159 24.1363 2.00983 26.5672 1.75776C27.2276 1.68926 27.4942 1.73637 27.7728 1.97081C28.0548 2.20811 28.1401 2.42766 28.1345 2.9021C28.129 3.37805 27.9846 4.4335 27.8563 4.93547C27.6269 5.83354 27.1535 6.91975 26.6579 7.68504C26.4668 7.98001 26.4245 8.0921 26.4511 8.23184C26.5084 8.53214 26.8045 8.68852 27.1006 8.57491C27.3242 8.48907 28.0668 7.14006 28.4344 6.15176C28.8168 5.12385 29.1124 3.41262 29.0476 2.60327C28.9943 1.93805 28.5766 1.31432 27.9808 1.00999C27.099 0.559577 24.5604 0.973249 22.7278 1.86604C21.4225 2.50196 20.3934 3.32731 19.2092 4.68833L18.5054 5.49721L17.5876 5.11706C17.0828 4.90799 16.5644 4.69507 16.4355 4.6438C16.128 4.52163 16.1336 4.53065 16.2717 4.37907C16.4645 4.16737 16.5234 4.00993 16.5234 3.70618C16.5234 3.34571 16.3353 3.03932 15.803 2.53208C15.3843 2.13317 15.1202 1.99161 14.7944 1.99161C14.4732 1.99161 14.1976 2.1695 13.63 2.74313L13.1097 3.26895L12.7053 3.09686C12.4829 3.00223 12.2315 2.8984 12.1466 2.86612L11.9923 2.80747L12.2001 2.58997C12.3144 2.47032 12.4375 2.31487 12.4735 2.2445C12.5688 2.05841 12.5537 1.60495 12.445 1.38809C12.3145 1.12753 11.5592 0.365749 11.2962 0.229343C11.0356 0.0941668 10.6418 0.0870184 10.4003 0.213054ZM10.3168 1.48911L9.88476 1.92411L10.1132 2.02108C10.2389 2.0744 10.509 2.18567 10.7134 2.26835L11.0852 2.41864L11.3819 2.12186L11.6787 1.82508L11.3086 1.4396C11.105 1.2276 10.8958 1.05411 10.8436 1.05411C10.7916 1.05411 10.5545 1.24987 10.3168 1.48911ZM5.63308 1.52801C5.29218 1.63214 5.0312 1.84014 4.26263 2.62032C3.41138 3.4844 3.36743 3.586 3.70599 3.90692C3.86026 4.05311 13.222 11.0629 13.4569 11.208C13.5104 11.241 16.0943 8.32723 17.7373 6.38122L17.8672 6.22735L12.1728 3.86842C6.15257 1.37438 6.14495 1.37169 5.63308 1.52801ZM14.3862 3.27915C14.1957 3.47163 14.0515 3.63997 14.0658 3.65321C14.0801 3.66645 14.3472 3.782 14.6594 3.90991L15.2271 4.14258L15.4441 3.92034L15.6612 3.69809L15.292 3.3136C15.0889 3.10214 14.88 2.92911 14.8277 2.92911C14.7754 2.92911 14.5767 3.08661 14.3862 3.27915ZM22.9314 3.71409C22.6285 3.93481 22.7451 4.40122 23.1299 4.50809C23.2507 4.54161 23.3916 4.56921 23.4429 4.56938C23.6362 4.57008 24.2115 4.80569 24.4658 4.98833C24.8124 5.23723 25.1084 5.69239 25.2263 6.15768C25.2786 6.36387 25.3474 6.63346 25.3791 6.75674C25.4503 7.03266 25.7023 7.16924 25.9687 7.07637C26.2072 6.99323 26.2697 6.83714 26.2244 6.43729C26.0535 4.92598 24.9102 3.78364 23.4411 3.65626C23.1456 3.63065 23.0276 3.64401 22.9314 3.71409ZM25.2803 9.39112C25.2143 9.43026 22.3007 11.9412 18.8057 14.9711C15.3107 18.0009 12.1479 20.7314 11.7773 21.0389C10.1896 22.3563 8.39823 23.5277 6.67183 24.3773C6.14595 24.6361 6.02923 24.6725 5.80259 24.6483C5.60396 24.6271 5.50153 24.5763 5.37778 24.4379C5.0564 24.0782 5.1498 23.7545 6.02706 22.1873C6.79458 20.8163 7.6129 19.6072 8.68329 18.263C8.97819 17.8927 9.14056 17.6368 9.14056 17.5426C9.14056 17.253 8.76901 17.0302 8.47458 17.1432C8.39208 17.1748 7.80011 17.8814 7.32515 18.515C7.21646 18.6601 7.10929 18.8003 7.08696 18.8268C7.0647 18.8532 6.10036 18.4457 4.94407 17.9213L2.84173 16.9677L2.31439 16.9672C1.89146 16.9668 1.73003 16.9928 1.49905 17.0984C1.18528 17.2419 0.22628 18.134 0.0759874 18.4222C-0.0518642 18.6673 0.00192488 19.1203 0.181925 19.3153C0.259093 19.3989 1.30212 20.2041 2.49978 21.1047L4.67741 22.7421L4.50105 23.1189C4.16425 23.8387 4.22853 24.513 4.68316 25.0295C5.1979 25.6143 5.94157 25.7443 6.70493 25.3831C7.03235 25.2282 7.12458 25.2055 7.18089 25.266C7.21927 25.3074 7.96235 26.2904 8.83218 27.4506C9.702 28.6107 10.4823 29.6231 10.5662 29.7002C10.762 29.8802 11.2149 29.9339 11.4599 29.8063C11.7678 29.6459 12.5859 28.75 12.7482 28.3955C12.933 27.9919 12.9881 27.5206 12.8941 27.1474C12.8552 26.9929 12.4166 25.9678 11.9194 24.8695C11.4223 23.7711 11.0156 22.857 11.0156 22.838C11.0156 22.819 11.2065 22.6625 11.44 22.4903C11.963 22.1044 12.7826 21.4099 15.6449 18.9271C16.8722 17.8626 17.8957 16.9916 17.9194 16.9916C17.9432 16.9916 19.6447 19.2461 21.7007 22.0016C25.9079 27.6403 25.6387 27.3347 26.3964 27.3319C26.6776 27.3308 26.8711 27.2966 27.0117 27.2231C27.1244 27.1642 27.5995 26.7298 28.0672 26.2579C29.0276 25.289 29.2492 24.9492 29.3605 24.2749C29.4563 23.695 29.3797 23.3387 28.9201 22.2253C28.7084 21.7123 28.5351 21.267 28.5351 21.2358C28.5351 21.2047 28.8383 20.8768 29.2089 20.5073C29.6015 20.1158 29.9057 19.7616 29.9378 19.6586C29.9681 19.5614 30.0043 19.2577 30.0182 18.9838C30.0322 18.7099 30.0268 18.6044 30.0062 18.7494C29.9722 18.9897 29.9643 19.0001 29.9172 18.8667C29.8474 18.6687 29.1535 17.952 28.8312 17.7449C28.3839 17.4575 27.9259 17.524 27.5019 17.938C27.3687 18.068 27.2461 18.1522 27.2295 18.125C27.2129 18.0979 27.0903 17.8133 26.957 17.4928L26.7148 16.91L27.2124 16.4088C27.8672 15.7492 28.0105 15.3932 27.8099 14.9243C27.7655 14.8206 27.4814 14.4942 27.1785 14.1989C26.7467 13.778 26.5798 13.653 26.4063 13.6205C26.1147 13.5657 25.7917 13.6219 25.6053 13.7598L25.4549 13.871L24.9438 12.6335C24.6627 11.9528 24.4329 11.3793 24.4331 11.359C24.4334 11.3387 24.7168 11.075 25.0631 10.7731C25.4094 10.4711 25.7522 10.1609 25.8248 10.0836C26.1794 9.70682 25.7242 9.12792 25.2803 9.39112ZM21.3214 14.0107C20.0521 15.1105 18.9264 16.0866 18.8198 16.1799L18.626 16.3494L22.2408 21.1969C24.229 23.863 25.9364 26.13 26.035 26.2348C26.171 26.3792 26.2639 26.4252 26.4194 26.4252C26.6048 26.4252 26.699 26.3503 27.3956 25.6488C28.2683 24.7702 28.4243 24.5231 28.4593 23.9643C28.4871 23.5221 28.7955 24.3181 25.6933 16.825C24.5976 14.1785 23.6849 12.0126 23.6651 12.0121C23.6453 12.0115 22.5906 12.911 21.3214 14.0107ZM25.9983 14.6353L25.8398 14.8007L26.0867 15.3984L26.3335 15.9961L26.6433 15.6902C26.8137 15.522 26.9531 15.3563 26.9531 15.3221C26.9531 15.2879 26.7739 15.0822 26.555 14.8649L26.1568 14.4698L25.9983 14.6353ZM1.84194 17.9617C1.74327 18.0104 1.50023 18.2142 1.30194 18.4145L0.941417 18.7787L3.02431 20.3511C4.16987 21.2159 5.11405 21.9146 5.12249 21.9038C5.13093 21.893 5.29142 21.6205 5.47915 21.2982C5.66683 20.976 5.96161 20.4929 6.13423 20.2247C6.30685 19.9565 6.45403 19.7128 6.4613 19.6831C6.46857 19.6535 5.60442 19.2338 4.54095 18.7504C2.86851 17.9903 2.5678 17.8717 2.31439 17.8724C2.15325 17.8729 1.94067 17.9131 1.84194 17.9617ZM0.0166905 18.7787C0.0171593 18.9398 0.0285264 18.9988 0.042003 18.9097C0.055421 18.8207 0.0550694 18.6888 0.0411827 18.6168C0.027296 18.5447 0.0162804 18.6176 0.0166905 18.7787ZM27.9323 18.7954C27.7805 18.9496 27.6562 19.102 27.6562 19.1341C27.6562 19.2096 28.0606 20.1715 28.1161 20.2281C28.1394 20.2518 28.3791 20.0494 28.6488 19.7783L29.1391 19.2854L28.7692 18.9002C28.5658 18.6884 28.3564 18.515 28.3039 18.515C28.2514 18.515 28.0842 18.6412 27.9323 18.7954ZM9.90866 23.5656C9.70634 23.7089 8.49116 24.4529 8.03126 24.7152C7.96681 24.7519 8.31321 25.2481 9.52411 26.8535L11.1009 28.9439L11.4409 28.6074C12.0208 28.0337 12.1311 27.6278 11.8751 27.0111C11.5617 26.2565 10.2356 23.3786 10.2023 23.381C10.1823 23.3824 10.0502 23.4655 9.90866 23.5656Z" fill="#B0B0B0"/>
</g>
<defs>
<clipPath id="clip0_27_34340">
<rect width="30" height="30" fill="white"/>
</clipPath>
</defs>
</svg>
