<svg width="30" height="30" viewBox="0 0 30 30" fill="none" xmlns="http://www.w3.org/2000/svg">
<path fill-rule="evenodd" clip-rule="evenodd" d="M4.99066 7.4598C4.92059 7.53439 4.86357 7.64648 4.86398 7.70883C4.86434 7.77123 5.04621 8.52627 5.26816 9.38672L5.67176 10.9512L5.34076 11.0171C4.43701 11.1973 3.96264 11.3303 3.8608 11.4322C3.7551 11.5379 3.75 11.6766 3.75 14.4355V17.328L3.2959 17.4907C2.13275 17.9074 1.01461 18.3639 0.908203 18.4655C0.795645 18.573 0.791016 18.6538 0.791016 20.5146V22.4518L0.930234 22.5645C1.06266 22.6717 1.17152 22.6765 3.15053 22.6618L5.23154 22.6465L5.34803 22.4904C5.47629 22.3186 5.45689 22.1059 5.29846 21.9475C5.21889 21.8679 4.96547 21.8555 3.42252 21.8555H1.63852L1.65422 20.4388L1.66992 19.0222L2.16797 18.827C7.71773 16.6529 15.5459 14.4145 22.4121 13.0383C24.4603 12.6278 28.2906 11.9864 28.3513 12.0438C28.3916 12.082 28.2337 13.2734 28.1153 13.8248C27.977 14.469 27.717 15.2333 27.4663 15.7324C27.1049 16.452 26.754 16.9016 25.728 17.9599C24.237 19.4979 23.3095 20.6985 22.9586 21.5452L22.83 21.8555H19.2708H15.7116L15.5902 22.0099C15.4307 22.2126 15.4369 22.3563 15.6126 22.5319L15.7564 22.6758H19.5253C23.7315 22.6758 23.4756 22.7021 23.6095 22.255C23.885 21.3347 24.6522 20.3058 26.3975 18.5156C27.037 17.8597 27.5177 17.3084 27.7318 16.9857C28.563 15.7322 29.036 14.2601 29.1799 12.4777C29.2722 11.3353 29.1899 11.104 28.6982 11.1233C28.3729 11.136 26.0831 11.4921 24.4336 11.7863C23.7085 11.9157 23.0337 12.0353 22.9339 12.0521C22.7787 12.0783 22.4556 11.9111 20.6781 10.8847C19.5371 10.2258 18.5376 9.65127 18.457 9.60791C18.272 9.50842 17.9885 9.51832 15.7972 9.70066C14.8338 9.78082 14.0387 9.83918 14.0303 9.83045C14.0218 9.82166 13.8543 9.30029 13.6579 8.67187C13.4117 7.88449 13.2623 7.49742 13.1771 7.42676C13.0659 7.33459 12.8909 7.32422 11.4486 7.32422C9.92186 7.32422 9.83807 7.3299 9.72656 7.44141C9.66211 7.50586 9.60938 7.63061 9.60938 7.71861C9.60938 7.80662 9.75826 8.40047 9.9402 9.0382C10.1221 9.67594 10.2587 10.2101 10.2435 10.2252C10.1834 10.2854 9.46148 10.3545 9.42885 10.3032C9.41016 10.2738 9.21539 9.65086 8.99613 8.91885C8.75432 8.11143 8.55047 7.53604 8.47799 7.45605C8.35957 7.32539 8.34404 7.32422 6.73828 7.32422C5.12045 7.32422 5.11787 7.32439 4.99066 7.4598ZM5.85938 8.20061C5.85938 8.27039 6.50232 10.7406 6.52688 10.7651C6.54557 10.7839 8.5149 10.4849 8.54326 10.459C8.5531 10.4501 8.40568 9.93228 8.21572 9.30832L7.87025 8.17383L6.86484 8.15777C6.21984 8.14752 5.85938 8.16287 5.85938 8.20061ZM10.6055 8.20594C10.6055 8.28334 11.1219 10.0868 11.153 10.1179C11.1998 10.1647 13.125 9.93721 13.125 9.88488C13.125 9.85494 13.0049 9.45117 12.8582 8.98752L12.5915 8.14453H11.5985C10.945 8.14453 10.6055 8.16551 10.6055 8.20594ZM17.2559 10.4392C12.2738 10.8377 8.12256 11.3343 5.68359 11.8236L4.59961 12.041L4.5835 12.9932C4.57465 13.5169 4.58479 13.9453 4.606 13.9453C4.62721 13.9453 5.04316 13.825 5.53031 13.6779C8.36068 12.8235 13.5196 11.7119 17.9004 11.0125C18.3516 10.9404 18.743 10.8617 18.7703 10.8374C18.8276 10.7865 18.1061 10.3669 17.9827 10.3794C17.9374 10.3839 17.6104 10.4109 17.2559 10.4392ZM18.9844 11.6951C13.8847 12.5468 10.1575 13.3041 7.29492 14.0699C6.19922 14.3631 5.04756 14.7057 4.73145 14.8324L4.57031 14.897V15.9615V17.0259L6.1084 16.5081C10.4753 15.038 15.544 13.6349 19.9331 12.6813L21.497 12.3415L20.7983 11.9422C20.4139 11.7226 20.0398 11.5453 19.9668 11.5481C19.8937 11.5509 19.4517 11.617 18.9844 11.6951ZM20.625 15.5859C20.4487 15.7622 20.4687 16.074 20.6664 16.2295C20.8519 16.3754 21.0674 16.3498 21.2256 16.1629C21.3787 15.9819 21.3562 15.7338 21.1737 15.5902C20.9788 15.4369 20.7756 15.4353 20.625 15.5859ZM18.4136 16.0422C18.1151 16.0888 18.0077 16.5283 18.2411 16.7476C18.5551 17.0426 18.9889 16.7897 18.9274 16.3477C18.8981 16.1369 18.6711 16.002 18.4136 16.0422ZM15.8879 16.6846C15.5839 16.9417 15.7501 17.4023 16.1469 17.4023C16.5343 17.4023 16.7029 17.0445 16.4606 16.7364C16.317 16.5539 16.0689 16.5315 15.8879 16.6846ZM7.53264 21.9857C7.40695 22.1651 7.41838 22.4184 7.55859 22.5586C7.66377 22.6638 7.75389 22.6758 8.4375 22.6758C9.12111 22.6758 9.21123 22.6638 9.31641 22.5586C9.46605 22.4089 9.47139 22.0836 9.32643 21.9524C9.23777 21.8722 9.08162 21.8555 8.42156 21.8555C7.66365 21.8555 7.6193 21.862 7.53264 21.9857ZM11.5472 22.0099C11.3878 22.2126 11.3939 22.3563 11.5696 22.5319C11.7076 22.67 11.7444 22.6758 12.4778 22.6758C13.1641 22.6758 13.2541 22.6638 13.3594 22.5586C13.509 22.4089 13.5144 22.0836 13.3694 21.9524C13.2807 21.8722 13.1246 21.8555 12.4655 21.8555C11.6745 21.8555 11.6678 21.8566 11.5472 22.0099Z" fill="#B0B0B0"/>
</svg>
