<svg width="30" height="30" viewBox="0 0 30 30" fill="none" xmlns="http://www.w3.org/2000/svg">
<g clip-path="url(#clip0_27_34348)">
<path fill-rule="evenodd" clip-rule="evenodd" d="M13.7645 5.0901C13.6673 5.16885 13.6291 5.26072 13.6291 5.41605C13.6291 5.62195 13.7207 5.72385 15.5323 7.53299C17.2137 9.21205 17.4567 9.43359 17.6176 9.43359C17.8893 9.43359 18.0705 9.25928 18.0705 8.99801C18.0705 8.79211 17.9789 8.69021 16.1673 6.88107C14.4859 5.20201 14.2429 4.98047 14.082 4.98047C13.9818 4.98047 13.839 5.0298 13.7645 5.0901ZM21.7586 6.0399C21.3976 6.10787 21.074 6.29367 20.8398 6.5673C20.4591 7.01203 20.4494 7.08697 20.4494 9.58898V11.8329L20.2773 11.922C19.7505 12.1944 14.0405 15.8644 13.7697 16.1046C13.0014 16.7861 12.8175 17.8891 13.3156 18.8263C13.5104 19.1928 14.0426 19.7241 14.2726 19.7818C14.3505 19.8014 14.4143 19.838 14.4143 19.8632C14.4143 19.8884 13.997 20.1755 13.4869 20.5014L12.5595 21.0937H6.93482C0.683748 21.0937 1.01205 21.0735 0.526424 21.4892C-0.184728 22.0979 -0.178342 23.2591 0.539549 23.8736C0.987322 24.2569 0.995818 24.2578 4.16058 24.2578H7.01099L7.13843 24.1222C7.27338 23.9785 7.30361 23.7347 7.20845 23.557C7.09109 23.3377 6.86205 23.3203 4.0901 23.3203C1.19826 23.3203 1.1614 23.3167 1.01135 23.0177C0.86158 22.7192 0.8999 22.4296 1.11799 22.2115L1.29828 22.0312H6.88273H12.4672L12.8548 22.6509C13.0679 22.9917 13.2424 23.2818 13.2424 23.2955C13.2424 23.3091 12.2707 23.3203 11.0831 23.3203C8.85822 23.3203 8.60955 23.343 8.49506 23.557C8.39527 23.7434 8.42967 23.9955 8.57328 24.1304C8.70834 24.2572 8.72052 24.2578 11.2929 24.2578H13.8768L14.0555 24.5481C14.3164 24.9721 14.7305 25.1357 15.0773 24.9516C15.2489 24.8606 23.1042 19.9291 23.7083 19.5332C24.4496 19.0474 24.4817 18.8229 23.9398 17.9147L23.6135 17.3679V15.3701C23.6135 13.5055 23.6061 13.3634 23.5038 13.237C23.3556 13.0539 23.0165 13.0514 22.8358 13.232C22.7068 13.361 22.7051 13.3852 22.6877 15.3207L22.6701 17.279L22.5031 17.4579C22.2168 17.7643 21.6986 17.7067 21.4847 17.3447C21.3955 17.1937 21.3869 16.7523 21.3869 12.3074C21.3869 7.05498 21.3787 7.19877 21.6895 7.04912C22.0572 6.87217 22.3582 6.92525 22.555 7.20176C22.664 7.35475 22.6714 7.48424 22.6879 9.51715L22.7053 11.6704L22.8697 11.8118C23.0796 11.9923 23.2875 11.9914 23.4696 11.8093L23.6135 11.6655L23.6129 9.45088C23.6124 7.25426 23.6112 7.23398 23.4756 6.94336C23.1762 6.30182 22.436 5.91234 21.7586 6.0399ZM9.58818 7.03553C9.47117 7.12752 9.43379 7.20937 9.43379 7.37332C9.43379 7.58039 9.54271 7.69852 11.9695 10.123C14.6901 12.8409 14.6327 12.7946 14.963 12.5348C15.0794 12.4433 15.1174 12.3608 15.1174 12.1995C15.1174 11.996 14.999 11.8671 12.6711 9.53367C11.3256 8.18508 10.1536 7.04396 10.0666 6.99785C9.85426 6.88541 9.77064 6.89197 9.58818 7.03553ZM26.426 11.1847C25.7028 11.4185 25.1767 11.8222 24.8206 12.4166C24.5247 12.9103 24.4195 13.2967 24.4222 13.8789C24.4297 15.4594 25.633 16.6523 27.217 16.6494C29.3465 16.6456 30.6481 14.4552 29.6694 12.5224C29.4871 12.1624 28.912 11.5873 28.552 11.405C27.88 11.0647 27.0599 10.9798 26.426 11.1847ZM26.9159 12.0175C26.5467 12.0646 26.0687 12.3168 25.8273 12.5919C25.5063 12.9574 25.346 13.3895 25.347 13.8867C25.348 14.4255 25.4821 14.7558 25.8673 15.1676C26.3083 15.639 26.9308 15.8341 27.5762 15.7032C28.576 15.5004 29.2118 14.5768 29.0522 13.5592C28.9862 13.1381 28.8422 12.86 28.5254 12.5417C28.109 12.1232 27.5396 11.9377 26.9159 12.0175ZM8.50648 12.2059C8.23601 12.4938 8.30258 12.6147 9.24775 13.5523C9.9391 14.2382 10.1489 14.4141 10.2758 14.4141C10.4993 14.4141 10.7228 14.1747 10.7228 13.9356C10.7228 13.7681 10.6201 13.642 9.88566 12.9075C9.124 12.1458 9.02978 12.0703 8.84117 12.0703C8.70025 12.0703 8.59308 12.1137 8.50648 12.2059ZM17.5236 14.741C15.9305 15.7549 14.5365 16.6537 14.4257 16.7382C14.1293 16.9643 13.925 17.4474 13.958 17.8447C13.993 18.2668 14.2414 18.6632 14.6163 18.895C14.861 19.0462 14.9598 19.072 15.2886 19.0702C15.5569 19.0688 15.7391 19.0332 15.8882 18.953C16.006 18.8897 17.0799 18.2183 18.2746 17.4609L20.4467 16.084L20.4481 14.4873C20.4488 13.6091 20.4428 12.8921 20.4348 12.894C20.4267 12.8958 19.1167 13.727 17.5236 14.741ZM4.64996 14.2671C4.45109 14.3507 4.39472 14.4519 4.39472 14.7247C4.39472 14.8884 4.62547 15.1395 6.49115 17.0051C8.39679 18.9108 8.60515 19.1016 8.78017 19.1016C9.04004 19.1016 9.17568 19.0195 9.24511 18.8204C9.28672 18.7011 9.28179 18.6052 9.22777 18.4822C9.13103 18.262 5.17607 14.3205 4.97814 14.2471C4.87537 14.209 4.77347 14.2152 4.64996 14.2671ZM16.9479 19.3886C15.0382 20.6041 13.4492 21.6252 13.4169 21.6575C13.3498 21.7246 14.7655 24.0016 14.8628 23.9829C14.9094 23.9739 22.2692 19.3725 23.1017 18.8319L23.3223 18.6885L23.1934 18.4644L23.0644 18.2404L22.7384 18.413C22.4412 18.5704 22.3728 18.5835 21.966 18.5608C21.6177 18.5414 21.461 18.5015 21.2526 18.3793C20.8965 18.1707 20.6408 17.8504 20.5311 17.4756C20.4816 17.3064 20.4364 17.1703 20.4306 17.1732C20.4249 17.1761 18.8576 18.173 16.9479 19.3886Z" fill="#B0B0B0"/>
</g>
<defs>
<clipPath id="clip0_27_34348">
<rect width="30" height="30" fill="white"/>
</clipPath>
</defs>
</svg>
