<svg width="20" height="20" viewBox="0 0 20 20" fill="none" xmlns="http://www.w3.org/2000/svg">
<path d="M9.5479 0.957121C9.72831 0.575191 10.2717 0.575191 10.4521 0.957121L13.0318 6.41841C13.1047 6.57272 13.2512 6.67919 13.4205 6.70083L19.4116 7.46661C19.8306 7.52016 19.9985 8.03695 19.6911 8.32655L15.2942 12.4676C15.17 12.5846 15.114 12.7569 15.1457 12.9246L16.2688 18.8591C16.3474 19.2741 15.9077 19.5935 15.5373 19.3906L10.2402 16.4886C10.0906 16.4066 9.90943 16.4066 9.75977 16.4886L4.4627 19.3906C4.09226 19.5935 3.65265 19.2742 3.73119 18.8591L4.85426 12.9246C4.88599 12.7569 4.83001 12.5846 4.70578 12.4676L0.308948 8.32655C0.00145972 8.03695 0.169376 7.52016 0.588362 7.46661L6.57952 6.70083C6.74879 6.67919 6.89534 6.57272 6.96823 6.41841L9.5479 0.957121Z" fill="#F2994A"/>
</svg>
