<svg width="30" height="30" viewBox="0 0 30 30" fill="none" xmlns="http://www.w3.org/2000/svg">
<g clip-path="url(#clip0_27_34325)">
<path fill-rule="evenodd" clip-rule="evenodd" d="M10.7892 3.01062C10.5145 3.11005 10.1555 3.42523 10.0252 3.68152C9.96482 3.80017 9.79238 4.31907 9.64203 4.8347C9.49168 5.35032 9.34291 5.85406 9.31145 5.95413L9.25426 6.13601L8.12803 6.16741C7.1801 6.19378 6.94156 6.21904 6.621 6.32697C5.87451 6.57822 5.25611 7.11763 4.93813 7.79486C4.79404 8.10171 4.11418 10.1548 3.7134 11.4932L3.63201 11.7651L3.41492 11.6544C3.2232 11.5566 3.06031 11.5438 2.02367 11.5446C0.916895 11.5456 0.836387 11.5531 0.620703 11.6765C0.494844 11.7485 0.310273 11.9086 0.210547 12.0323C0.0301368 12.2561 0.0290821 12.2614 0.0102149 13.0662C-0.0064843 13.7798 0.00488289 13.9018 0.10707 14.101C0.362598 14.5993 0.702559 14.7663 1.46158 14.7663H1.98951L1.76117 15.1197C1.45859 15.5878 1.20283 16.2158 1.08881 16.7707C0.963828 17.3789 0.95416 20.9634 1.07633 21.4167C1.19504 21.8572 1.38969 22.2311 1.66021 22.5385C1.9332 22.8486 2.495 23.2349 2.75668 23.2924L2.92959 23.3303V24.4871C2.92959 25.9006 2.97189 26.0673 3.4526 26.548C3.9418 27.0372 4.08406 27.071 5.6542 27.071C7.15092 27.071 7.33355 27.0334 7.77857 26.6333C7.93227 26.4951 8.12357 26.2536 8.20373 26.0967C8.3426 25.8248 8.35039 25.755 8.3675 24.6247L8.38549 23.4382H14.9999H21.6143L21.6323 24.6247C21.6494 25.755 21.6572 25.8248 21.7961 26.0967C21.8762 26.2536 22.0675 26.4951 22.2212 26.6333C22.6663 27.0334 22.8489 27.071 24.3456 27.071C25.9157 27.071 26.058 27.0372 26.5472 26.548C27.0281 26.0671 27.0702 25.9009 27.0702 24.4842V23.3245L27.3973 23.1697C28.094 22.8401 28.7104 22.0791 28.9141 21.2971C29.046 20.7907 29.0437 17.4164 28.911 16.7707C28.797 16.2158 28.5412 15.5878 28.2386 15.1197L28.0103 14.7663L28.551 14.7651C29.3249 14.7632 29.6059 14.6167 29.9314 14.0452C30.0438 13.8479 30.0585 13.7343 30.0585 13.0603C30.0585 12.5674 30.0378 12.3113 29.9999 12.3347C29.9677 12.3546 29.9413 12.3358 29.9413 12.2929C29.9413 12.159 29.5889 11.7801 29.352 11.6592C29.1493 11.5558 29.0043 11.5437 27.9638 11.5437C26.9438 11.5437 26.7757 11.5571 26.5866 11.6535L26.3713 11.7633L26.3139 11.5802C25.1104 7.74417 25.0528 7.59429 24.5929 7.10808C24.23 6.72435 23.8686 6.49179 23.3788 6.32697C23.0582 6.21904 22.8197 6.19378 21.8718 6.16741L20.7455 6.13601L20.6884 5.95413C20.6569 5.85406 20.5081 5.35032 20.3578 4.8347C20.2074 4.31907 20.0355 3.80116 19.9758 3.68374C19.8348 3.40648 19.4553 3.08433 19.1684 2.99843C18.838 2.89941 11.0652 2.91077 10.7892 3.01062ZM11.0888 3.89667C10.855 3.99827 10.8436 4.02335 10.4939 5.20091L10.2112 6.15306H14.9999H19.7887L19.5059 5.20091C19.1539 4.01556 19.1455 3.99751 18.8981 3.89415C18.6001 3.76964 11.3757 3.77193 11.0888 3.89667ZM12.4218 4.33665C12.4218 4.4982 12.4382 4.51243 12.625 4.51243H12.8282L12.8447 5.20091L12.8612 5.88939L13.0517 5.90773L13.2421 5.92613V5.21925V4.51243H13.4409C13.6472 4.51243 13.736 4.41177 13.6735 4.24876C13.6464 4.17845 13.518 4.16087 13.0307 4.16087H12.4218V4.33665ZM14.2471 4.26341C14.1317 4.48361 13.7633 5.75966 13.793 5.83689C13.8102 5.88189 13.9022 5.91868 13.9973 5.91868C14.1425 5.91868 14.1766 5.88997 14.2096 5.7398C14.2465 5.57163 14.2633 5.56196 14.4902 5.57866C14.6928 5.59355 14.737 5.61997 14.7655 5.7429C14.8074 5.92366 15.0949 5.98618 15.1557 5.82769C15.1895 5.73968 14.8936 4.63226 14.7456 4.29271C14.6727 4.12548 14.3301 4.10532 14.2471 4.26341ZM15.5077 4.19995C15.4321 4.27548 15.4704 4.41435 15.6444 4.69724C15.7411 4.85439 15.8202 5.01019 15.8202 5.04347C15.8202 5.07675 15.7249 5.253 15.6085 5.43505L15.3966 5.76611L15.5234 5.86876C15.692 6.00523 15.7855 5.959 15.9667 5.64968C16.05 5.50759 16.1277 5.39134 16.1394 5.39134C16.1511 5.39134 16.2294 5.50864 16.3134 5.65196C16.4987 5.96814 16.5457 6.00083 16.6979 5.91933C16.8654 5.82974 16.8458 5.69732 16.6146 5.35396L16.4129 5.05454L16.619 4.72513C16.8547 4.34831 16.8573 4.19843 16.6286 4.17195C16.4937 4.1563 16.4473 4.19556 16.3044 4.4457L16.1377 4.73767L15.9755 4.44927C15.8555 4.23575 15.7788 4.16087 15.6801 4.16087C15.6068 4.16087 15.5292 4.17845 15.5077 4.19995ZM17.196 4.29271C17.178 4.36519 17.1709 4.75413 17.1802 5.15697L17.1972 5.88939L17.3666 5.90872C17.4628 5.91974 17.5573 5.89443 17.5854 5.85013C17.6418 5.76124 17.6551 4.39448 17.6011 4.25357C17.58 4.19878 17.4966 4.16087 17.3971 4.16087C17.2712 4.16087 17.2204 4.19415 17.196 4.29271ZM14.4583 4.8347C14.3435 5.21902 14.3434 5.21556 14.4686 5.21556C14.5965 5.21556 14.6128 5.13036 14.5357 4.864C14.4966 4.72917 14.4904 4.72683 14.4583 4.8347ZM7.1099 7.15097C6.60154 7.25281 6.08176 7.61913 5.83314 8.05073C5.7568 8.18327 5.361 9.34642 4.95365 10.6355C4.54625 11.9245 4.19135 13.0457 4.16492 13.1269L4.11693 13.2747L4.54631 13.2202L4.97568 13.1658L5.27533 12.2229C6.51629 8.31745 6.46807 8.42995 7.03566 8.11595L7.35342 7.94017L12.4511 7.92359C15.2548 7.91445 17.6073 7.92136 17.6789 7.93894C18.0319 8.02554 18.1564 8.45111 17.9029 8.70452L17.7591 8.84837H12.6597H7.56037L7.38506 9.0095C7.2333 9.14902 7.12695 9.43255 6.59311 11.1213C6.25397 12.1941 5.97647 13.0972 5.97647 13.1281C5.97647 13.1637 9.28238 13.1843 14.9999 13.1843C21.2735 13.1843 24.0233 13.1655 24.0233 13.1227C24.0233 13.0887 23.7458 12.1857 23.4067 11.1158C22.8734 9.43366 22.7663 9.14884 22.6147 9.0095L22.4394 8.84837H21.0076C20.0682 8.84837 19.5257 8.82558 19.4305 8.78216C19.216 8.68443 19.1155 8.40575 19.2246 8.21128C19.3872 7.92165 19.4804 7.90753 21.1229 7.92447L22.6464 7.94017L22.9641 8.11595C23.5293 8.42861 23.5302 8.43066 24.7534 12.3107L25.0228 13.1656L25.4536 13.2202C25.7448 13.2571 25.878 13.2554 25.8646 13.215C25.8538 13.182 25.4987 12.0608 25.0757 10.7234C24.6528 9.38597 24.2439 8.18327 24.1672 8.05073C23.9847 7.73527 23.6665 7.46093 23.2643 7.27226L22.9394 7.11986L15.1464 7.11101C10.8603 7.10614 7.24385 7.12413 7.1099 7.15097ZM0.0230469 13.155C0.0231055 13.6062 0.0323048 13.783 0.0434376 13.5479C0.054629 13.3129 0.0545118 12.9438 0.0433204 12.7276C0.0320704 12.5115 0.0229298 12.7038 0.0230469 13.155ZM1.11318 12.4633C0.935234 12.5268 0.878809 12.681 0.878809 13.1038C0.878809 13.3372 0.904531 13.5959 0.935938 13.6785L0.993066 13.8288L1.97598 13.827C2.70031 13.8256 2.98584 13.8046 3.06143 13.7473C3.14586 13.6832 3.16396 13.5754 3.16396 13.1372C3.16396 12.4171 3.17018 12.4211 2.05227 12.4272C1.5841 12.4297 1.16152 12.446 1.11318 12.4633ZM26.9677 12.5111C26.8476 12.5967 26.8358 12.6522 26.8358 13.1372C26.8358 13.5754 26.8539 13.6832 26.9384 13.7473C27.014 13.8046 27.2995 13.8256 28.0238 13.827L29.0067 13.8288L29.0639 13.6785C29.1524 13.4457 29.135 12.6986 29.038 12.5656C28.9628 12.4627 28.8665 12.4502 28.0272 12.4345C27.2505 12.42 27.0781 12.4324 26.9677 12.5111ZM4.34697 14.1908C4.20811 14.2219 4.10264 14.2674 4.1126 14.292C4.12262 14.3165 4.34053 14.7126 4.59688 15.1722C5.27064 16.38 5.42082 16.4666 6.91397 16.5087C7.78912 16.5335 7.89324 16.5476 8.0126 16.6575C8.18 16.8117 8.18891 17.1242 8.03053 17.2826C7.86406 17.4491 7.57965 17.4823 6.65568 17.4434C5.06082 17.3764 4.56078 17.054 3.75031 15.5701C3.50885 15.128 3.29691 14.7663 3.27934 14.7663C3.22836 14.7663 2.72545 15.3051 2.58641 15.5087C2.35373 15.8493 2.12357 16.3733 2.02437 16.7878C1.94023 17.1396 1.92887 17.4898 1.94451 19.2488C1.96127 21.1265 1.97211 21.3168 2.07336 21.5046C2.29695 21.9193 2.52518 22.1446 2.91699 22.3375L3.30799 22.53H14.9413H26.5746L26.9658 22.3374C27.4354 22.1063 27.7795 21.7395 27.9472 21.2913C28.058 20.9951 28.0662 20.8409 28.0654 19.0854C28.0645 16.9549 28.0379 16.7512 27.6584 15.9659C27.4507 15.5361 26.7758 14.6874 26.7046 14.7663C26.6901 14.7825 26.4837 15.1516 26.246 15.5867C26.0084 16.0217 25.6969 16.5035 25.5538 16.6574C25.2173 17.0193 24.602 17.3244 24.0526 17.4017C23.4521 17.4861 9.85988 17.4816 9.61678 17.3969C9.29422 17.2845 9.20469 16.8839 9.45049 16.6529L9.58467 16.5268L16.8479 16.5109L24.1112 16.4949L24.4454 16.3307C24.6293 16.2405 24.8423 16.0921 24.9189 16.0011C25.099 15.7871 25.9195 14.2992 25.8795 14.2593C25.8628 14.2425 25.748 14.2053 25.6246 14.1767C25.313 14.1043 4.6724 14.1181 4.34697 14.1908ZM3.76197 17.9964C3.49848 18.1269 3.28115 18.4462 3.28115 18.703C3.28115 18.9527 3.7584 20.5962 3.88607 20.786C3.95621 20.8903 4.11166 21.015 4.23148 21.0632C4.35131 21.1113 5.22506 21.2344 6.17316 21.3368L7.89693 21.5229L8.11988 21.4072C8.46389 21.2287 8.58436 21.0275 8.58143 20.6361C8.57932 20.3569 8.51973 20.1717 8.21053 19.4831C7.82152 18.617 7.65283 18.3798 7.3584 18.2851C7.19012 18.231 4.3819 17.8718 4.12813 17.8719C4.06514 17.8719 3.90037 17.9279 3.76197 17.9964ZM24.1112 18.0717C23.3056 18.175 22.5934 18.2885 22.5286 18.3239C22.4638 18.3593 22.3633 18.4407 22.3054 18.5047C22.1419 18.6853 21.3881 20.3996 21.3873 20.5926C21.386 20.9038 21.6096 21.2663 21.8856 21.4003L22.1355 21.5217L23.8851 21.3335C25.7765 21.13 25.959 21.0834 26.1509 20.755C26.3347 20.4404 26.7317 18.927 26.7021 18.6535C26.6522 18.1934 26.2714 17.8653 25.8016 17.8778C25.6776 17.8811 24.9169 17.9683 24.1112 18.0717ZM10.224 18.1569C9.77873 18.3591 9.65141 18.5783 9.40572 19.565C9.14762 20.6014 9.14891 20.8682 9.41363 21.1952C9.50674 21.3103 9.67414 21.4533 9.78559 21.5131C9.97848 21.6165 10.23 21.6218 14.9805 21.6218C18.3653 21.6218 20.0258 21.6018 20.1377 21.5595C20.5249 21.4132 20.8007 20.9997 20.8007 20.5656C20.8007 20.3342 20.5072 19.05 20.386 18.7507C20.2899 18.5136 20.0578 18.2848 19.7905 18.1634C19.5506 18.0546 19.3637 18.0502 14.9999 18.0502C10.7327 18.0502 10.4447 18.0566 10.224 18.1569ZM4.37299 19.322C4.45174 19.604 4.53154 19.9066 4.55029 19.9945C4.56898 20.0824 4.6141 20.1772 4.65055 20.2051C4.70885 20.2498 7.61973 20.5857 7.65131 20.5513C7.6625 20.5391 7.0915 19.2208 7.05219 19.168C7.03789 19.1488 4.48057 18.818 4.29746 18.8117C4.25223 18.8101 4.27736 18.9798 4.37299 19.322ZM24.272 18.9812C23.587 19.0675 23.0025 19.163 22.9731 19.1934C22.8992 19.2699 22.3626 20.5079 22.391 20.5364C22.4037 20.549 23.0838 20.488 23.9025 20.4008L25.391 20.2423L25.5535 19.6576C25.8093 18.737 25.8011 18.8083 25.6504 18.8168C25.5773 18.8209 24.957 18.8949 24.272 18.9812ZM10.4882 19.1169C10.409 19.3031 10.1366 20.4185 10.1366 20.5568C10.1366 20.62 10.1783 20.6878 10.2293 20.7073C10.2803 20.7269 12.4374 20.7429 15.0228 20.7429C18.6927 20.7429 19.7449 20.7268 19.8206 20.6697C19.91 20.6022 19.9033 20.5386 19.7353 19.864C19.635 19.4612 19.5272 19.0986 19.4958 19.0583C19.451 19.0009 18.4797 18.9851 14.9915 18.9851H10.5443L10.4882 19.1169ZM3.86709 24.4958C3.86709 25.668 3.89522 25.7859 4.23242 26.0264C4.41816 26.1588 4.45965 26.1628 5.6542 26.1628C6.84875 26.1628 6.89023 26.1588 7.07598 26.0264C7.41318 25.7859 7.44131 25.668 7.44131 24.4958V23.4382H5.6542H3.86709V24.4958ZM22.5585 24.4958C22.5585 25.668 22.5866 25.7859 22.9238 26.0264C23.1096 26.1588 23.1511 26.1628 24.3456 26.1628C25.5402 26.1628 25.5816 26.1588 25.7674 26.0264C26.1046 25.7859 26.1327 25.668 26.1327 24.4958V23.4382H24.3456H22.5585V24.4958Z" fill="#B0B0B0"/>
</g>
<defs>
<clipPath id="clip0_27_34325">
<rect width="30" height="30" fill="white"/>
</clipPath>
</defs>
</svg>
