<svg width="18" height="16" viewBox="0 0 18 16" fill="none" xmlns="http://www.w3.org/2000/svg">
<path fill-rule="evenodd" clip-rule="evenodd" d="M15.4091 14.7238C15.3847 14.9876 15.2859 15.2382 15.1229 15.4424C14.9598 15.6478 14.7416 15.7963 14.4965 15.8718C14.25 15.9474 13.9881 15.9447 13.743 15.8652C13.4991 15.7857 13.2834 15.6319 13.1243 15.4238C11.7251 14.2758 9.54289 12.6215 9.54289 12.6215C9.54289 12.6215 7.964 15.4941 7.6816 15.7883C7.58789 15.8692 7.48009 15.9288 7.36328 15.9646C7.24518 15.9991 7.12323 16.0084 7.00257 15.9925C6.8819 15.9752 6.7651 15.9328 6.66113 15.8679C6.55715 15.8029 6.46728 15.7154 6.39796 15.612C6.38384 15.567 6.3659 15.5219 6.34664 15.4794L7.23232 10.9036L13.5478 4.49699L4.93463 9.57263C4.93463 9.57263 1.04519 8.37164 0.467557 8.13701C0.318655 8.05218 0.195425 7.92626 0.113272 7.77382C0.031119 7.62005 -0.00868105 7.44644 0.00158806 7.27147C0.0105735 7.09649 0.0683645 6.92681 0.165921 6.78497C0.264761 6.64181 0.400818 6.53045 0.557422 6.46417C1.37895 6.03203 15.8712 0.31608 16.359 0.16894C16.8468 0.0217997 18.1304 -0.361297 17.9892 0.928497C17.848 2.21829 15.5503 14.0147 15.4091 14.7238Z" fill="#2F80ED"/>
</svg>
