<svg width="24" height="20" viewBox="0 0 24 20" fill="none" xmlns="http://www.w3.org/2000/svg">
<path fill-rule="evenodd" clip-rule="evenodd" d="M18.3749 0.0281088C18.3362 0.0416261 14.7396 1.38476 10.3825 3.01284C5.44122 4.85917 2.3595 5.98729 2.19206 6.01099C1.3826 6.1257 0.675476 6.6166 0.306186 7.32024C0.0368368 7.83348 0.000929763 8.07993 0.000179747 9.42274C-0.000757774 10.9901 -0.0217582 10.953 0.890121 10.9936C1.66901 11.0282 2.13777 11.2443 2.56041 11.7634C2.86055 12.1321 2.97024 12.4623 2.97024 12.997C2.97024 13.5317 2.86055 13.862 2.56041 14.2306C2.13777 14.7497 1.66901 14.9658 0.890121 15.0004C-0.0217582 15.041 -0.000757774 15.004 0.000179747 16.5713C0.000929763 17.9141 0.0368368 18.1606 0.306186 18.6738C0.582474 19.2003 1.0907 19.6443 1.6654 19.8613C1.9431 19.9662 1.96527 19.967 5.24959 19.9903C7.06721 20.0032 11.5919 20.0032 15.3045 19.9903L22.0546 19.9669L22.3341 19.8613C22.9172 19.6411 23.4133 19.2074 23.6941 18.6723C23.9636 18.1588 23.9985 17.9154 23.9993 16.5476L24 15.3344L23.8406 15.1748C23.6862 15.0202 23.6697 15.0152 23.3102 15.0152C22.5295 15.0152 22.0352 14.8374 21.596 14.3986C20.8099 13.6134 20.8099 12.3782 21.596 11.5967C22.0308 11.1644 22.5365 10.9788 23.2798 10.9788C23.9859 10.9788 24.0002 10.948 23.9993 9.42274C23.9985 8.11185 23.9632 7.84976 23.7232 7.37352C23.3888 6.71037 22.799 6.24421 22.0536 6.05399L21.865 6.00583L20.9858 3.41226C20.4304 1.77381 20.0596 0.750672 19.9791 0.634085C19.8112 0.39115 19.4854 0.154411 19.1984 0.0666894C18.9755 -0.00141313 18.5201 -0.0227686 18.3749 0.0281088ZM18.9852 1.05256C19.0605 1.09156 19.1441 1.16459 19.171 1.21486C19.2398 1.3436 20.7656 5.86681 20.7656 5.94209C20.7656 5.99302 19.4012 6.00386 13.047 6.00344C8.80181 6.00316 5.34133 5.99006 5.35703 5.97439C5.41488 5.91647 18.6364 0.986707 18.7405 0.98422C18.7998 0.982812 18.9099 1.0136 18.9852 1.05256ZM8.01528 7.34498C8.01528 7.67545 8.02498 7.71032 8.1523 7.83779C8.252 7.93763 8.33441 7.97499 8.45479 7.97499C8.83786 7.97499 8.99967 7.77406 8.99967 7.29828V6.98804L15.4334 7.00043L21.8671 7.01282L22.1142 7.12462C22.42 7.26298 22.7873 7.65353 22.9013 7.96156C22.9669 8.13874 22.9887 8.37712 23.0044 9.08969L23.0242 9.99319L22.8676 9.99398C22.557 9.99563 22.047 10.1361 21.6562 10.3276C20.8977 10.6994 20.2811 11.4724 20.0885 12.293C19.9969 12.6834 19.9969 13.3107 20.0885 13.701C20.2811 14.5217 20.8977 15.2947 21.6562 15.6664C22.047 15.858 22.557 15.9984 22.8676 16.0001L23.0242 16.0009L23.0044 16.9044C22.9887 17.6169 22.9669 17.8553 22.9013 18.0325C22.7873 18.3405 22.42 18.7311 22.1142 18.8694L21.8671 18.9812L15.4334 18.9936L8.99967 19.006V18.6958C8.99967 18.22 8.83786 18.0191 8.45479 18.0191C8.33441 18.0191 8.252 18.0564 8.1523 18.1562C8.02489 18.2838 8.01528 18.3185 8.01528 18.6504V19.0074L5.07381 18.9943L2.13234 18.9812L1.8853 18.8694C1.57948 18.7311 1.21221 18.3405 1.0982 18.0325C1.03262 17.8553 1.01083 17.6169 0.995123 16.9044L0.975248 16.0009L1.13191 16.0001C1.44251 15.9984 1.95252 15.858 2.34328 15.6664C3.10178 15.2947 3.71839 14.5217 3.91095 13.701C4.00255 13.3107 4.00255 12.6834 3.91095 12.293C3.71839 11.4724 3.10178 10.6994 2.34328 10.3276C1.95458 10.1371 1.44279 9.99563 1.13622 9.99398L0.983873 9.99319V9.22106C0.983873 8.44457 1.03075 8.06576 1.1576 7.8171C1.25552 7.62518 1.58684 7.27678 1.75489 7.18906C2.11855 6.99921 2.17842 6.99574 5.14412 6.9925L8.01528 6.98935V7.34498ZM8.31472 9.56983C8.2603 9.59185 8.17062 9.66732 8.1155 9.73749C8.02015 9.85886 8.01528 9.91424 8.01528 10.8808C8.01528 12.0064 8.02695 12.0561 8.31974 12.1786C8.53724 12.2696 8.78953 12.1917 8.90817 11.9968C8.99049 11.8616 8.99934 11.7553 8.99949 10.8997C8.99958 10.3787 8.97909 9.89819 8.95397 9.83201C8.90231 9.69595 8.64881 9.52276 8.50747 9.52698C8.45591 9.52853 8.36919 9.54782 8.31472 9.56983ZM8.35808 13.8032C8.27591 13.8251 8.16519 13.8984 8.11198 13.9661C8.021 14.0819 8.01528 14.1498 8.01528 15.1147V16.1402L8.14419 16.2834C8.38293 16.5485 8.83279 16.4811 8.95397 16.162C8.97909 16.0958 8.99958 15.6154 8.99949 15.0943C8.99934 14.2327 8.99091 14.1331 8.90644 13.9944C8.85534 13.9105 8.80781 13.8418 8.80083 13.8418C8.79384 13.8418 8.72498 13.8242 8.64777 13.8026C8.57062 13.781 8.44026 13.7813 8.35808 13.8032Z" fill="#B0B0B0"/>
</svg>
