<svg width="30" height="30" viewBox="0 0 30 30" fill="none" xmlns="http://www.w3.org/2000/svg">
<path fill-rule="evenodd" clip-rule="evenodd" d="M23.2744 0.0619268C21.7688 0.34005 20.4826 1.13307 19.6077 2.32257C19.2465 2.81366 18.929 3.44404 18.929 3.67008C18.929 4.02967 19.3788 4.21935 19.6319 3.9665C19.6956 3.90292 19.8307 3.68662 19.9322 3.4858C20.6355 2.0943 22.0403 1.12263 23.6549 0.910842C25.2028 0.70785 26.6974 1.2543 27.8068 2.42891C29.7101 4.44404 29.5245 7.41055 27.3034 10.4751C26.6405 11.3898 25.007 13.1573 24.3746 13.6443L24.2123 13.7693L23.1637 12.7234C21.6915 11.2548 20.9063 10.2273 20.2061 8.85301C19.7057 7.87066 19.4601 7.03254 19.3693 5.99741C19.3398 5.66151 19.2987 5.50715 19.2171 5.42556C19.0736 5.28228 18.8044 5.28251 18.6272 5.42609C18.4998 5.5292 18.4899 5.57583 18.5047 5.99794C18.5665 7.76017 19.4121 9.6943 20.9748 11.6481C21.2199 11.9545 21.5385 12.3318 21.6827 12.4866C21.9322 12.7542 21.9386 12.7695 21.8141 12.8021C21.5205 12.8788 20.8628 13.2355 20.6334 13.4426C19.8895 14.1138 20.025 15.0143 20.954 15.5732C21.7499 16.052 22.8575 16.2953 24.2433 16.2956C26.6695 16.2962 28.3244 15.5195 28.3244 14.3803C28.3244 14.0177 28.1997 13.7632 27.876 13.4651C27.6317 13.2403 26.8641 12.8211 26.6965 12.8211C26.5517 12.8211 26.6251 12.6924 27.0351 12.2277C29.1524 9.82773 30.2045 7.2787 29.967 5.12369C29.702 2.71817 27.9569 0.728085 25.6031 0.147205C24.9778 -0.0071054 23.8681 -0.0477506 23.2744 0.0619268ZM23.3855 3.3404C22.9159 3.53336 22.6826 3.68949 22.378 4.01471C20.9896 5.49729 21.8283 7.89782 23.8597 8.25518C25.0913 8.4719 26.3875 7.62415 26.7089 6.39178C27.0529 5.07295 26.3227 3.74726 25.0055 3.29899C24.5708 3.15102 23.7983 3.17078 23.3855 3.3404ZM24.9502 4.22087C25.999 4.70867 26.2349 6.1065 25.4079 6.9326C25.0906 7.24955 24.7344 7.38914 24.2433 7.38914C23.7369 7.38914 23.3832 7.2441 23.0475 6.89864C22.1904 6.01647 22.5747 4.49207 23.7438 4.13688C24.0676 4.03852 24.6444 4.07864 24.9502 4.22087ZM6.21384 9.09225C3.47983 9.54228 1.21893 11.4652 0.347976 14.0812C-0.116276 15.4756 -0.115982 17.1881 0.348798 18.8085C0.909647 20.7636 2.2327 22.9663 4.08278 25.025C4.34374 25.3153 4.54715 25.563 4.53482 25.5753C4.52249 25.5877 4.29148 25.6782 4.02147 25.7766C2.56371 26.3081 1.86869 27.2258 2.25132 28.1143C2.65232 29.0453 4.12471 29.7182 6.25753 29.9451C8.56487 30.1907 11.238 29.5875 12.126 28.6209C12.5185 28.1935 12.6413 27.5923 12.4361 27.1019C12.2267 26.6011 11.5085 26.0766 10.559 25.7308L10.1249 25.5727L10.5221 25.1317C10.9237 24.6857 11.776 23.6466 11.959 23.3799C12.1596 23.0877 12.0385 22.7047 11.7356 22.6732C11.4668 22.6453 11.3913 22.706 10.842 23.3914C9.95792 24.4948 8.84644 25.6562 7.72791 26.6456L7.36096 26.9703L7.08198 26.7438C6.60968 26.3605 5.20313 24.9656 4.63476 24.3167C1.10971 20.2926 0.0403346 16.5987 1.51741 13.5492C3.02021 10.4467 6.68338 9.07635 9.89943 10.4137C10.9093 10.8335 12.0643 11.7831 12.6851 12.7038C13.5296 13.9562 13.8616 15.1343 13.8008 16.6627C13.7471 18.0152 13.4435 19.0677 12.6617 20.6125C12.148 21.6275 12.118 21.7651 12.372 21.9427C12.5788 22.0874 12.7938 22.0503 12.9728 21.8387C13.2217 21.5446 13.9748 19.963 14.2087 19.2434C14.324 18.8885 14.4691 18.3739 14.5313 18.0997C14.6845 17.424 14.74 16.0937 14.6445 15.3907C14.224 12.2977 11.8856 9.80228 8.79952 9.15348C8.18066 9.02339 6.82683 8.99131 6.21384 9.09225ZM6.56494 13.2677C6.36939 13.3141 6.01336 13.4634 5.77378 13.5998C5.4218 13.7999 5.32791 13.8837 5.28457 14.0363C5.24347 14.1809 5.25357 14.2596 5.32773 14.3726C5.49063 14.6209 5.68282 14.6244 6.15159 14.3877C6.65214 14.1349 6.94052 14.0533 7.33149 14.0538C8.23292 14.0549 9.04921 14.5765 9.44064 15.4016C9.6053 15.7486 9.62162 15.8359 9.62162 16.3695C9.62162 16.9056 9.60589 16.9888 9.43841 17.3372C8.73557 18.7998 6.85244 19.1224 5.70531 17.9767C5.17717 17.4491 4.94393 16.7002 5.07294 15.9461C5.13689 15.5726 5.13401 15.5054 5.04857 15.3752C4.87581 15.1118 4.5044 15.1086 4.33358 15.369C4.28513 15.4428 4.2159 15.7246 4.17973 15.995C4.05001 16.9647 4.37075 17.8788 5.0952 18.6041C7.10705 20.6184 10.5268 19.2179 10.5311 16.3779C10.5325 15.4826 10.2272 14.7456 9.59226 14.1114C8.79711 13.3172 7.67495 13.0044 6.56494 13.2677ZM23.1667 13.9744C23.8105 14.5659 24.0802 14.7566 24.2725 14.7566C24.4248 14.7566 24.5536 14.6573 25.5956 13.7373L25.8533 13.5098L26.1346 13.5795C26.4978 13.6696 27.0048 13.9004 27.2503 14.0874C27.5168 14.2905 27.5043 14.4609 27.2041 14.7176C26.6929 15.1547 25.5833 15.4166 24.2433 15.4166C22.9015 15.4166 21.7916 15.152 21.2716 14.708C20.905 14.395 20.9858 14.1701 21.5714 13.8736C21.8625 13.7263 22.4262 13.533 22.5795 13.5281C22.6332 13.5263 22.8975 13.7272 23.1667 13.9744ZM17.9463 13.9842C17.6811 14.039 17.5197 14.1955 17.5197 14.3976C17.5197 14.6308 17.6891 14.8228 17.9026 14.8315C18.6682 14.8628 18.9485 14.75 18.9485 14.4105C18.9485 14.1365 18.7662 13.9815 18.42 13.9614C18.264 13.9523 18.0508 13.9626 17.9463 13.9842ZM16.1565 14.789C15.922 14.9162 15.5819 15.388 15.5819 15.5861C15.5819 15.8147 15.7695 15.9883 16.0164 15.9883C16.1837 15.9883 16.2644 15.9354 16.5155 15.6609C16.8633 15.2809 16.9027 15.0734 16.6708 14.8419C16.5068 14.678 16.3845 14.6654 16.1565 14.789ZM15.347 16.7929C15.1169 16.8759 15.0534 17 15.0534 17.3669C15.0534 17.7912 15.1394 18.0788 15.2905 18.1596C15.4658 18.2532 15.6908 18.2254 15.8227 18.0938C15.9315 17.9851 15.9436 17.9159 15.9251 17.5085C15.9084 17.1416 15.88 17.0233 15.787 16.9341C15.652 16.8044 15.4737 16.7472 15.347 16.7929ZM16.0627 18.9817C15.8563 19.1739 15.8909 19.4426 16.1544 19.692C16.6121 20.1252 16.8033 20.1829 17.0745 19.9698C17.2024 19.8693 17.2289 19.8057 17.2145 19.6346C17.1994 19.4562 17.1424 19.3799 16.8473 19.1428C16.4606 18.8322 16.2662 18.7923 16.0627 18.9817ZM18.343 19.6977C17.9315 19.8459 17.9502 20.3531 18.3725 20.4948C18.6661 20.5934 19.1946 20.5478 19.3461 20.411C19.4965 20.2749 19.4955 19.9118 19.3444 19.7752C19.1988 19.6436 18.6181 19.5986 18.343 19.6977ZM20.7114 19.6652C20.3987 19.7263 20.2678 20.1667 20.4948 20.3936C20.6493 20.5478 21.1661 20.6008 21.482 20.4948C21.7556 20.4029 21.8639 20.1933 21.7724 19.9325C21.6867 19.6885 21.2087 19.5681 20.7114 19.6652ZM23.0192 19.6812C22.6947 19.7852 22.5837 20.1368 22.8016 20.3704C23.0438 20.63 23.8248 20.6149 24.0361 20.3465C24.19 20.1511 24.1865 20.0194 24.0224 19.8289C23.9127 19.7015 23.8286 19.6706 23.538 19.6512C23.3445 19.6383 23.1111 19.6518 23.0192 19.6812ZM25.3308 19.6992C24.9191 19.8445 24.9379 20.353 25.3603 20.4948C25.6754 20.6005 26.1931 20.5478 26.3467 20.3943C26.4924 20.2489 26.4921 19.9371 26.3462 19.7967C26.2051 19.6609 25.6032 19.603 25.3308 19.6992ZM27.3892 20.307C27.1517 20.6086 27.2473 20.8146 27.7816 21.1531C28.1243 21.3701 28.3353 21.3754 28.4963 21.171C28.726 20.8793 28.656 20.6917 28.2029 20.3843C27.7908 20.1048 27.5653 20.0834 27.3892 20.307ZM29.089 21.8705C28.7816 22.0249 28.7668 22.2686 29.0277 22.8766C29.2026 23.2841 29.6008 23.3422 29.8294 22.9936C29.9283 22.843 29.927 22.8224 29.7947 22.4344C29.6091 21.8899 29.3934 21.7175 29.089 21.8705ZM29.2712 24.1847C29.1167 24.3133 28.9343 24.9864 28.9918 25.2153C29.0189 25.3232 29.0959 25.4062 29.2156 25.4564C29.5543 25.5986 29.751 25.4504 29.8836 24.9531C30.0001 24.5158 29.99 24.3914 29.8244 24.2261C29.6552 24.0569 29.4436 24.0411 29.2712 24.1847ZM28.2229 26.1727C27.9582 26.3024 27.561 26.7479 27.561 26.9151C27.561 27.1051 27.7938 27.3079 28.012 27.3079C28.2301 27.3079 28.7618 26.8987 28.8419 26.6691C28.9749 26.2879 28.6006 25.9876 28.2229 26.1727ZM5.76133 26.7403C6.67727 27.6058 7.12831 27.9531 7.33654 27.9531C7.55762 27.9531 7.91899 27.6841 8.83834 26.8354L9.40565 26.3116L9.92463 26.4618C10.9893 26.77 11.6475 27.2095 11.6475 27.6124C11.6475 28.2074 10.2903 28.8422 8.59488 29.0403C8.19105 29.0875 7.64535 29.1261 7.3821 29.1261C6.43657 29.1261 5.1154 28.9321 4.45413 28.6961C3.6483 28.4085 3.01546 27.9443 3.01546 27.6407C3.01546 27.2647 3.76926 26.7446 4.72137 26.4635C4.99425 26.383 5.2376 26.3156 5.2622 26.3139C5.28675 26.3122 5.51135 26.5041 5.76133 26.7403ZM25.9032 27.1265C25.5275 27.1735 25.3764 27.3105 25.3996 27.583C25.4291 27.929 25.6286 28.0349 26.1518 27.9824C26.6476 27.9327 26.7977 27.8246 26.7977 27.5175C26.7977 27.3701 26.7563 27.2839 26.6429 27.1949C26.4862 27.0717 26.4026 27.064 25.9032 27.1265ZM18.6941 27.1705C18.3894 27.2929 18.2968 27.6736 18.5179 27.8944C18.6158 27.9922 18.7136 28.0117 19.1051 28.0117C19.6527 28.0117 19.8098 27.9156 19.8098 27.5809C19.8098 27.2802 19.6437 27.1676 19.1743 27.1499C18.9586 27.1418 18.7425 27.1511 18.6941 27.1705ZM20.9444 27.2017C20.662 27.338 20.6461 27.8037 20.9188 27.9495C20.9829 27.9837 21.2306 28.0117 21.4693 28.0117C21.847 28.0117 21.9198 27.9941 22.031 27.876C22.2003 27.6959 22.1937 27.4549 22.0145 27.2759C21.8887 27.1502 21.8197 27.1325 21.4713 27.1359C21.2519 27.1381 21.0148 27.1677 20.9444 27.2017ZM23.1836 27.2759C23.1044 27.3551 23.0395 27.4883 23.0395 27.5718C23.0395 27.6554 23.1044 27.7885 23.1836 27.8677C23.3091 27.9931 23.3808 28.0117 23.7367 28.0117C23.9616 28.0117 24.1884 27.9953 24.2406 27.9753C24.384 27.9203 24.5156 27.6245 24.4727 27.4536C24.4119 27.2116 24.2348 27.132 23.7578 27.132C23.3795 27.132 23.3104 27.1493 23.1836 27.2759ZM13.9197 27.2558C13.6373 27.4198 13.6944 27.8978 14.0094 28.0074C14.423 28.1515 15.044 28.039 15.1343 27.8038C15.2052 27.6195 15.1693 27.4442 15.0349 27.3181C14.9201 27.2104 14.8313 27.1909 14.4624 27.1924C14.2222 27.1934 13.9781 27.2219 13.9197 27.2558ZM16.1714 27.319C16.0193 27.482 16.0182 27.7192 16.1688 27.8806C16.4107 28.1399 17.1534 28.1287 17.3875 27.8623C17.5517 27.6755 17.5544 27.5437 17.3979 27.3451C17.2838 27.2002 17.2458 27.1906 16.7836 27.1906C16.3526 27.1906 16.2761 27.2066 16.1714 27.319Z" fill="white"/>
</svg>
