<svg width="30" height="30" viewBox="0 0 30 30" fill="none" xmlns="http://www.w3.org/2000/svg">
<g clip-path="url(#clip0_27_34333)">
<path fill-rule="evenodd" clip-rule="evenodd" d="M3.42773 0.63605C3.01441 0.83228 2.64773 1.2071 2.48707 1.59763C2.3843 1.84759 2.35436 1.8749 2.18326 1.87507C1.62457 1.87572 0.983086 2.3232 0.691406 2.91564C0.524473 3.25472 0.498047 3.3688 0.498047 3.75031C0.498047 4.13181 0.524473 4.24589 0.691406 4.58498C0.913711 5.03656 1.24254 5.34001 1.69658 5.51251C1.97068 5.61664 2.16422 5.62531 4.21875 5.62531C6.27328 5.62531 6.46682 5.61664 6.74092 5.51251C7.19496 5.34001 7.52379 5.03656 7.74609 4.58498C7.91303 4.24589 7.93945 4.13181 7.93945 3.75031C7.93945 3.3688 7.91303 3.25472 7.74609 2.91564C7.45441 2.3232 6.81293 1.87572 6.25424 1.87507C6.08314 1.8749 6.0532 1.84759 5.95043 1.59763C5.55727 0.641909 4.36928 0.189096 3.42773 0.63605ZM3.82465 1.52919C3.52225 1.6789 3.34652 1.94832 3.30891 2.31992C3.25682 2.83472 3.05725 2.98537 2.57162 2.8765C1.65223 2.67048 1.04795 3.73519 1.71656 4.38324C1.82396 4.48736 2.00232 4.59851 2.11277 4.63021C2.22598 4.66267 3.14555 4.68781 4.21875 4.68781C5.29195 4.68781 6.21152 4.66267 6.32473 4.63021C6.59648 4.55222 6.90328 4.24226 6.97605 3.97208C7.05803 3.66757 6.96422 3.35316 6.72094 3.11738C6.46676 2.87099 6.21586 2.80044 5.86307 2.87609C5.37762 2.98021 5.1801 2.82869 5.12777 2.31212C5.09074 1.9458 4.91092 1.67445 4.60822 1.5279C4.29252 1.37509 4.13549 1.37533 3.82465 1.52919ZM20.0583 2.47589C19.9932 2.54837 18.6134 4.86869 16.9921 7.63214C15.3707 10.3955 14.0259 12.6566 14.0036 12.6566C13.9813 12.6566 12.9142 11.0077 11.6322 8.99246C10.3502 6.97724 9.24609 5.28974 9.17865 5.24246C9.01359 5.12691 8.77119 5.13406 8.61703 5.2591C8.54754 5.31552 7.04766 7.62921 5.28398 10.4007L2.07727 15.4398L1.27301 15.456L0.46875 15.4723V15.9394V16.4066H5.625H10.7812V15.9382V15.4699L7.01262 15.4548L3.24398 15.4398L4.23293 13.887C4.77686 13.033 5.33437 12.1556 5.47184 11.9373L5.72174 11.5402L6.29156 12.2983C6.60498 12.7153 6.90182 13.0719 6.95115 13.0909C7.00049 13.1098 7.12271 13.1253 7.22279 13.1253C7.38012 13.1253 7.54465 12.9861 8.43949 12.0963L9.47426 11.0673L10.0421 11.8273C10.3545 12.2452 10.6506 12.6028 10.7004 12.6219C10.8765 12.6894 11.1342 12.6552 11.2392 12.5502C11.2978 12.4916 11.4593 12.1609 11.5983 11.8152L11.8509 11.1866L11.9804 11.3796C12.0517 11.4857 12.525 12.2251 13.0322 13.0227L13.9545 14.4728L13.7741 14.6246C13.595 14.7752 13.5938 14.7805 13.5938 15.3571V15.9378H12.7836C11.6936 15.9378 11.7188 15.9124 11.7188 17.0109V17.8128H11.0218C10.1946 17.8128 9.75545 17.9252 9.2243 18.2727C8.65266 18.6468 8.28897 19.1327 8.08383 19.7965C7.98305 20.1226 7.96875 20.3429 7.96875 21.569V22.9691H4.21875H0.46875V23.4378V23.9066H4.21875H7.96875V24.951C7.96875 25.9671 7.97244 25.999 8.10434 26.1229C8.22475 26.236 8.30525 26.2503 8.82211 26.2505L9.4043 26.2507L9.51135 26.5111C9.65971 26.8718 10.0362 27.2806 10.3932 27.4686C10.6581 27.6082 10.7586 27.6267 11.25 27.6267C11.7414 27.6267 11.8419 27.6082 12.1068 27.4686C12.4638 27.2806 12.8403 26.8718 12.9887 26.5111L13.0957 26.2507H15H16.9043L17.0113 26.5111C17.1597 26.8718 17.5362 27.2806 17.8932 27.4686C18.1581 27.6082 18.2586 27.6267 18.75 27.6267C19.2414 27.6267 19.3419 27.6082 19.6068 27.4686C19.9638 27.2806 20.3403 26.8718 20.4887 26.5111L20.5957 26.2507L21.1861 26.2505C22.0465 26.2502 22.0312 26.2739 22.0312 24.9428V23.9066H25.7812H29.5312V23.4378V22.9691H25.7812H22.0312L22.0305 21.7825C22.0298 20.4727 21.9889 20.2206 21.672 19.5733C21.4198 19.058 20.7861 18.4242 20.2708 18.172C19.7391 17.9118 19.3296 17.8143 18.7646 17.8135L18.2812 17.8128V16.2996C18.2812 14.7936 18.2806 14.7857 18.1457 14.6589C18.0141 14.5354 17.9667 14.5315 16.5783 14.5303L15.1465 14.529L14.8713 14.0915L14.5962 13.6541L15.9846 11.2828C16.7483 9.97871 17.3885 8.91054 17.4074 8.90914C17.4264 8.90773 17.5837 9.26638 17.7572 9.70613C18.1397 10.6753 18.2139 10.7816 18.5084 10.7816C18.7696 10.7816 18.8741 10.6814 19.5398 9.79331L19.995 9.18599L21.0284 10.2181C22.4093 11.5975 22.296 11.5993 23.3471 10.1811C23.6036 9.83509 23.8308 9.5716 23.852 9.5955C23.916 9.66769 27.3047 15.3994 27.3047 15.4356C27.3047 15.454 25.5908 15.4691 23.4961 15.4691H19.6875V15.9378V16.4066H24.6094H29.5312V15.9378V15.4691H29.0102H28.4893L26.6958 12.4484C25.7094 10.7869 24.9023 9.41585 24.9023 9.4015C24.9023 9.38708 25.6008 9.37531 26.4544 9.37531C27.8445 9.37531 28.0375 9.36353 28.3034 9.26251C28.7575 9.09001 29.0863 8.78656 29.3086 8.33497C29.4755 7.99589 29.502 7.88181 29.502 7.50031C29.502 7.1188 29.4755 7.00472 29.3086 6.66564C29.0169 6.0732 28.3754 5.62572 27.8167 5.62507C27.6456 5.6249 27.6157 5.59759 27.5129 5.34763C27.1198 4.39191 25.9318 3.9391 24.9902 4.38605C24.5769 4.58228 24.2102 4.9571 24.0496 5.34763C23.9445 5.60304 23.9194 5.62501 23.7305 5.62648C23.6177 5.62736 23.3685 5.69257 23.1769 5.77138C22.9852 5.85013 22.8224 5.90867 22.8151 5.9014C22.8079 5.89408 22.3628 5.15005 21.8261 4.24794C21.2894 3.34583 20.795 2.54837 20.7274 2.47589C20.6433 2.38566 20.5371 2.34406 20.3906 2.34406C20.2429 2.34406 20.1401 2.38484 20.0583 2.47589ZM20.3141 3.93499C20.2664 4.01064 19.7366 4.9083 19.1368 5.9297L18.0462 7.78689L18.3515 8.55646L18.6567 9.32609L18.7603 9.18382C18.8173 9.1056 19.043 8.80689 19.2619 8.51995C19.6438 8.01933 19.6699 7.99765 19.9124 7.98013L20.165 7.96191L21.2035 8.99035L22.2421 10.0188L22.5742 9.57089L22.9062 9.12294L22.6572 8.90374C22.1425 8.4507 21.9121 7.684 22.0846 6.99874L22.1533 6.72587L21.3507 5.36996C20.3152 3.62035 20.4205 3.76619 20.3141 3.93499ZM25.545 5.20988C25.1433 5.33685 24.9162 5.62677 24.8714 6.06992C24.8193 6.58472 24.6197 6.73537 24.1341 6.6265C23.2147 6.42048 22.6104 7.48519 23.2791 8.13324C23.3865 8.23736 23.5648 8.34851 23.6753 8.38021C23.7885 8.41267 24.708 8.43781 25.7812 8.43781C26.8545 8.43781 27.774 8.41267 27.8872 8.38021C27.9977 8.34851 28.176 8.23736 28.2834 8.13324C28.6608 7.76744 28.6608 7.23318 28.2834 6.86738C28.0292 6.62093 27.7744 6.54898 27.4298 6.62621C26.9435 6.73519 26.7432 6.58507 26.6914 6.07261C26.6572 5.73499 26.5137 5.47753 26.2793 5.33322C26.0642 5.2008 25.7439 5.14701 25.545 5.20988ZM7.59703 8.58904C6.86215 9.74919 6.33082 10.6454 6.34928 10.6936C6.36703 10.7398 6.57152 11.0303 6.80373 11.3393L7.22596 11.901L8.26025 10.8726C9.15463 9.98316 9.3191 9.84406 9.47643 9.84406C9.5765 9.84406 9.69949 9.85982 9.74971 9.8791C9.79992 9.89837 10.045 10.1884 10.2944 10.5236C10.5437 10.8588 10.7647 11.1331 10.7854 11.1331C10.8061 11.1331 10.9085 10.9122 11.0129 10.6422L11.2027 10.1511L10.0691 8.35964C9.44566 7.37433 8.92236 6.5682 8.90625 6.56826C8.89014 6.56832 8.30098 7.47763 7.59703 8.58904ZM14.5312 15.7034V15.9378H15.3414C16.4314 15.9378 16.4062 15.9124 16.4062 17.0109V17.8128H16.875H17.3438V16.6409V15.4691H15.9375H14.5312V15.7034ZM12.6562 17.3441V17.8128H14.0625H15.4688V17.3441V16.8753H14.0625H12.6562V17.3441ZM5.625 18.7503V19.2191H6.5625H7.5V18.7503V18.2816H6.5625H5.625V18.7503ZM22.0312 18.7503V19.2191H22.9688H23.9062V18.7503V18.2816H22.9688H22.0312V18.7503ZM10.4826 18.8097C10.0396 18.8846 9.5557 19.176 9.31652 19.5119L9.19125 19.6878H14.8907H20.5902L20.3586 19.4502C20.0678 19.1518 19.5295 18.8833 19.0723 18.8085C18.6562 18.7405 10.8855 18.7415 10.4826 18.8097ZM2.34375 21.0941V21.5628H3.28125H4.21875V21.0941V20.6253H3.28125H2.34375V21.0941ZM8.90625 21.7713C8.90625 22.6726 8.92189 22.9079 8.97949 22.8733C9.0198 22.8491 9.29238 22.6498 9.58523 22.4304L10.1177 22.0316H11.387H12.6562V21.3284V20.6253H10.7812H8.90625V21.7713ZM13.5938 21.3284V22.0316H14.5312H15.4688V21.3284V20.6253H14.5312H13.5938V21.3284ZM16.4062 21.3284V22.0316H17.3438H18.2812V21.3284V20.6253H17.3438H16.4062V21.3284ZM19.2188 21.3284V22.0316H20.1562H21.0938V21.6003C21.0938 21.3631 21.077 21.0467 21.0565 20.8972L21.0192 20.6253H20.119H19.2188V21.3284ZM25.7812 21.0941V21.5628H26.7188H27.6562V21.0941V20.6253H26.7188H25.7812V21.0941ZM9.70805 23.5682L8.90625 24.1675V24.7401V25.3128L9.15527 25.3126C9.39475 25.3124 9.4084 25.3024 9.51135 25.0521C9.65971 24.6913 10.0362 24.2825 10.3932 24.0945C10.6581 23.955 10.7586 23.9364 11.25 23.9364C11.7414 23.9364 11.8419 23.955 12.1068 24.0945C12.4638 24.2825 12.8403 24.6913 12.9887 25.0521L13.0957 25.3124H15H16.9043L17.0113 25.0521C17.1597 24.6913 17.5362 24.2825 17.8932 24.0945C18.1581 23.955 18.2586 23.9364 18.75 23.9364C19.2414 23.9364 19.3419 23.955 19.6068 24.0945C19.9638 24.2825 20.3403 24.6913 20.4887 25.0521C20.5916 25.3024 20.6053 25.3124 20.8447 25.3126L21.0938 25.3128V24.1409V22.9691H15.8018H10.5098L9.70805 23.5682ZM11.0224 24.9023C10.7528 24.9667 10.434 25.2983 10.3694 25.5815C10.2184 26.2435 10.8305 26.8341 11.4864 26.6593C11.7401 26.5917 12.0531 26.2801 12.1273 26.0214C12.315 25.3671 11.697 24.7411 11.0224 24.9023ZM18.5224 24.9023C18.2528 24.9667 17.934 25.2983 17.8694 25.5815C17.7184 26.2435 18.3305 26.8341 18.9864 26.6593C19.2401 26.5917 19.5531 26.2801 19.6273 26.0214C19.815 25.3671 19.197 24.7411 18.5224 24.9023ZM1.875 26.2503V26.7191H2.8125H3.75V26.2503V25.7816H2.8125H1.875V26.2503ZM4.6875 26.2503V26.7191H5.625H6.5625V26.2503V25.7816H5.625H4.6875V26.2503ZM23.9062 26.2503V26.7191H24.8438H25.7812V26.2503V25.7816H24.8438H23.9062V26.2503ZM26.7188 26.2503V26.7191H27.6562H28.5938V26.2503V25.7816H27.6562H26.7188V26.2503ZM0.46875 29.0628V29.5316H15H29.5312V29.0628V28.5941H15H0.46875V29.0628Z" fill="#B0B0B0"/>
</g>
<defs>
<clipPath id="clip0_27_34333">
<rect width="30" height="30" fill="white"/>
</clipPath>
</defs>
</svg>
