<svg width="18" height="18" viewBox="0 0 18 18" fill="none" xmlns="http://www.w3.org/2000/svg">
<path fill-rule="evenodd" clip-rule="evenodd" d="M9.00041 18C7.30353 17.9952 5.64267 17.5083 4.2122 16.5934L0 18L1.40408 13.779C0.346832 12.0875 -0.120011 10.0919 0.0767979 8.1058C0.274807 6.12095 1.12684 4.25631 2.49731 2.80885C3.86777 1.36019 5.67985 0.409207 7.64914 0.105048C9.61843 -0.199112 11.6321 0.161585 13.3746 1.13057C15.1159 2.09835 16.4876 3.61911 17.2724 5.45248C18.0584 7.28706 18.212 9.33083 17.7116 11.2628C17.2112 13.1947 16.0831 14.9043 14.5063 16.1245C12.9294 17.3436 10.9925 18.0036 9.00041 18ZM10.9565 10.3491C11.5553 10.5426 12.1637 10.7038 12.7806 10.83C12.8454 10.8396 12.9078 10.8625 12.963 10.8961C13.0194 10.931 13.0686 10.9755 13.1058 11.0296C13.1442 11.0825 13.1706 11.1425 13.185 11.2075C13.1994 11.2712 13.2006 11.3374 13.1886 11.4023V11.7485C13.1946 11.8723 13.1718 11.9949 13.1214 12.1079C13.0722 12.221 12.9954 12.3207 12.9006 12.4001C12.6054 12.7006 12.255 12.9423 11.8686 13.1118C11.2985 13.1791 10.7213 13.1286 10.1728 12.9639C9.62322 12.798 9.11443 12.5215 8.67641 12.15C8.11238 11.7701 7.58556 11.3386 7.10434 10.8577C6.62552 10.3732 6.19108 9.84536 5.80826 9.28153C5.44104 8.84272 5.16625 8.33301 5.00424 7.7836C4.84104 7.2354 4.7918 6.65834 4.86021 6.08969C5.02941 5.70498 5.26946 5.35632 5.56827 5.06058C5.64387 4.9632 5.74347 4.88629 5.85627 4.837C5.96908 4.7865 6.09387 4.76601 6.21627 4.77683H6.5643C6.69511 4.75879 6.82833 4.79368 6.93393 4.87302C7.04074 4.95357 7.11033 5.07262 7.12833 5.20366C7.30834 5.91537 7.44034 6.42992 7.62035 7.00698C7.69236 7.24742 7.60834 7.30511 7.41633 7.44937C7.29632 7.54194 7.20034 7.60929 7.10434 7.68022C7.04914 7.70426 6.99872 7.7403 6.95792 7.78478C6.91712 7.82926 6.88589 7.88337 6.86669 7.94107C6.84749 7.99878 6.84029 8.05887 6.84629 8.12019C6.8523 8.1803 6.87031 8.23921 6.90031 8.29211C7.20633 8.88239 7.59875 9.42461 8.06437 9.90068C8.53839 10.3671 9.08081 10.759 9.67244 11.0632C9.72524 11.0921 9.78405 11.1113 9.84405 11.1161C9.90405 11.1221 9.96524 11.1149 10.0228 11.0957C10.0804 11.0765 10.1333 11.0464 10.1789 11.0055C10.2233 10.9646 10.2593 10.9153 10.2845 10.86C10.3565 10.7626 10.4165 10.6713 10.5125 10.5463C10.5269 10.503 10.5509 10.4633 10.5821 10.4297C10.6121 10.3948 10.6493 10.3683 10.6913 10.3491C10.7321 10.3299 10.7777 10.319 10.8233 10.3178C10.8689 10.3166 10.9145 10.3239 10.9565 10.3407V10.3491Z" fill="#27AE60"/>
</svg>
